<?xml version="1.0" standalone="no"?>
<!DOCTYPE svg PUBLIC "-//W3C//DTD SVG 20010904//EN"
 "http://www.w3.org/TR/2001/REC-SVG-20010904/DTD/svg10.dtd">
<svg version="1.0" xmlns="http://www.w3.org/2000/svg"
 width="640.000000pt" height="640.000000pt" viewBox="0 0 640.000000 640.000000"
 preserveAspectRatio="xMidYMid meet">
<metadata>
Created by potrace 1.11, written by Peter Selinger 2001-2013
</metadata>
<g transform="translate(0.000000,640.000000) scale(0.100000,-0.100000)"
fill="#000000" stroke="none">
<path d="M0 5776 c0 -399 4 -627 10 -631 11 -7 9 -55 -2 -55 -4 0 -8 -25 -8
-55 0 -43 4 -56 19 -65 20 -10 23 -43 7 -68 -4 -7 -4 -21 0 -30 13 -29 10 -66
-8 -86 -11 -12 -18 -36 -18 -59 0 -35 2 -38 23 -30 12 4 37 7 55 7 17 0 32 3
32 8 0 4 6 8 14 8 7 0 31 12 52 26 47 32 65 24 71 -31 l4 -40 -21 21 c-18 18
-26 19 -45 10 -13 -6 -27 -21 -30 -33 -3 -13 -12 -23 -20 -23 -8 0 -15 -3 -16
-7 -3 -27 -9 -47 -24 -69 -14 -22 -15 -28 -2 -42 8 -10 11 -27 8 -40 l-6 -24
-25 20 c-21 17 -25 27 -23 62 2 34 -2 43 -17 47 -15 4 -18 11 -14 29 4 14 2
24 -5 24 -8 0 -11 -647 -11 -2320 l0 -2320 2329 0 2330 0 15 21 c14 20 85 44
96 32 3 -3 -1 -8 -7 -10 -7 -3 -23 -13 -35 -23 -23 -19 -21 -19 139 -20 97 0
164 4 168 10 3 6 17 10 29 10 16 0 26 7 30 22 6 25 22 16 28 -17 3 -19 12 -20
246 -23 185 -2 242 1 242 10 0 9 3 9 12 0 8 -8 53 -12 135 -12 116 0 123 1
123 20 0 11 4 20 9 20 6 0 22 11 37 25 27 25 27 25 46 6 24 -26 23 -34 -3 -26
-14 5 -25 2 -30 -6 -24 -38 -16 -39 226 -39 l235 0 0 149 c0 120 -3 151 -15
161 -8 7 -15 26 -15 42 0 22 -6 31 -20 35 -12 3 -19 10 -17 16 6 20 25 18 46
-4 l21 -23 0 83 c0 52 -4 80 -10 76 -6 -3 -10 -13 -10 -21 0 -8 -7 -14 -15
-14 -8 0 -15 7 -15 15 0 8 -6 15 -14 15 -10 0 -12 -9 -5 -43 4 -23 8 -45 9
-48 0 -4 -9 -9 -20 -12 -15 -4 -21 1 -25 19 -3 13 -7 34 -10 47 -6 29 -66 90
-96 97 -33 8 -34 55 -2 54 21 0 21 1 8 33 -8 18 -13 33 -12 34 1 0 12 2 25 3
25 3 42 -26 57 -94 4 -17 15 -40 25 -50 18 -18 18 -17 23 2 4 14 11 18 24 14
22 -7 48 8 39 23 -5 7 -22 9 -47 5 -23 -4 -39 -3 -39 3 0 11 46 23 87 23 l24
0 -2 227 c-1 150 -5 233 -12 245 -9 14 -9 23 1 38 15 25 17 261 1 277 -8 8 -7
16 2 31 10 16 10 26 1 47 -10 21 -10 31 -1 41 8 9 8 18 2 26 -6 7 -13 25 -16
39 -4 14 -18 31 -32 37 -34 16 -35 15 -32 -6 1 -9 -2 -17 -8 -17 -11 0 -11 38
0 73 6 18 4 22 -15 22 -16 0 -20 -4 -15 -19 7 -23 -5 -33 -25 -21 -11 7 -11
12 -2 23 7 8 10 22 6 31 -4 10 0 18 10 22 28 11 17 24 -19 24 -38 0 -40 2 -24
31 12 24 -7 73 -41 104 -11 10 -20 29 -20 42 0 12 -10 33 -22 46 -13 12 -23
29 -23 37 0 8 -15 18 -33 24 -26 7 -32 14 -32 37 0 16 7 32 16 37 9 5 14 14
10 21 -11 18 -20 13 -34 -19 -8 -16 -20 -30 -28 -30 -10 0 -11 -6 -4 -26 15
-38 12 -43 -15 -31 -26 13 -35 52 -12 60 9 3 9 7 0 17 -20 21 2 52 32 44 19
-5 25 -2 25 10 0 8 -11 18 -25 22 -24 6 -31 22 -27 64 1 8 -4 25 -10 37 -14
28 -4 41 17 23 12 -10 18 -8 33 10 11 14 24 20 31 16 9 -6 9 -12 -2 -24 -15
-16 -15 -41 -2 -108 5 -27 9 -31 27 -26 19 4 20 2 14 -22 -4 -18 -2 -32 9 -42
8 -9 15 -24 15 -35 0 -11 7 -22 15 -25 8 -4 15 -13 15 -20 0 -8 7 -17 15 -20
9 -4 25 -27 36 -51 16 -36 24 -44 40 -40 14 4 23 -1 31 -19 19 -40 50 -55 92
-42 l37 12 -1 458 -1 459 -22 9 -22 9 23 7 c20 6 22 12 22 88 0 59 -3 77 -11
66 -8 -12 -9 -10 -7 10 1 14 -1 26 -6 27 -10 1 -26 24 -26 35 0 4 10 7 23 5
l22 -2 2 963 c2 554 -1 961 -6 958 -16 -10 -38 38 -36 79 2 32 7 41 24 43 20
3 21 8 21 145 0 128 -2 143 -19 154 -13 8 -17 19 -14 37 3 14 10 26 15 26 5 0
7 -4 3 -9 -3 -5 -1 -12 5 -16 6 -4 10 6 10 25 0 28 -2 30 -20 20 -14 -7 -20
-7 -20 0 0 5 -7 10 -15 10 -8 0 -15 6 -15 14 0 19 17 29 25 16 10 -17 23 -11
18 8 -2 10 3 24 11 31 12 11 16 32 14 95 -1 44 -3 64 -5 44 -4 -32 -8 -38 -27
-38 -20 0 -22 5 -20 41 2 49 16 68 39 49 13 -11 15 0 15 103 0 102 -2 116 -17
119 -10 2 -29 -3 -41 -11 -13 -8 -35 -16 -48 -17 -20 -2 -24 2 -24 25 0 16 -7
45 -16 66 -8 21 -13 43 -10 50 2 7 -4 15 -15 18 -33 9 -18 67 18 67 20 0 37
-39 23 -55 -8 -10 -6 -17 12 -29 20 -15 23 -14 32 2 6 9 11 19 11 22 0 3 6 14
13 25 9 14 15 16 18 8 3 -7 12 -13 19 -13 8 0 16 -10 18 -22 3 -17 5 -14 6 10
1 22 -3 32 -14 32 -18 0 -19 14 -2 41 10 17 9 22 -5 30 -24 13 -23 45 2 66 13
12 20 30 20 55 l0 38 -45 0 c-48 0 -58 -12 -24 -30 11 -6 18 -17 16 -23 -2 -7
0 -20 5 -29 5 -12 5 -18 -2 -18 -5 0 -10 6 -10 14 0 19 -20 32 -29 18 -4 -6
-24 -18 -45 -27 -24 -10 -36 -21 -32 -30 6 -17 -38 -47 -58 -39 -25 10 -18 28
17 45 37 18 52 69 21 69 -15 0 -14 4 6 25 l23 25 -196 0 c-126 0 -198 -4 -202
-10 -5 -8 -11 -8 -20 0 -16 14 -1189 14 -1180 0 3 -6 1 -10 -4 -10 -6 0 -11 5
-11 10 0 6 -46 10 -119 10 -112 0 -119 -1 -124 -21 -3 -12 2 -28 13 -39 30
-30 38 -53 33 -95 -4 -36 -26 -75 -37 -64 -2 2 -1 20 3 39 8 38 -2 66 -32 88
-13 10 -17 24 -15 51 l3 36 -2177 3 -2178 2 0 -624z m4150 604 c0 -5 -4 -10
-10 -10 -5 0 -10 5 -10 10 0 6 5 10 10 10 6 0 10 -4 10 -10z m880 -10 c0 -5
-2 -10 -4 -10 -3 0 -8 5 -11 10 -3 6 -1 10 4 10 6 0 11 -4 11 -10z m-1848 -32
c-6 -6 -15 -8 -19 -4 -4 4 -1 11 7 16 19 12 27 3 12 -12z m435 -14 c1 -22 -3
-34 -10 -31 -17 5 -21 36 -7 52 16 20 16 20 17 -21z m391 25 c-2 -6 -8 -10
-13 -10 -5 0 -11 4 -13 10 -2 6 4 11 13 11 9 0 15 -5 13 -11z m1082 -54 c0
-20 -26 -19 -34 1 -11 28 -7 35 14 24 11 -6 20 -17 20 -25z m-2360 -1 c0 -8
-5 -12 -10 -9 -6 4 -8 11 -5 16 9 14 15 11 15 -7z m70 1 c0 -8 -6 -15 -14 -15
-17 0 -28 14 -19 24 12 12 33 6 33 -9z m2750 -5 c0 -5 -7 -10 -15 -10 -8 0
-15 5 -15 10 0 6 7 10 15 10 8 0 15 -4 15 -10z m-1873 -12 c4 -7 9 -22 10 -33
2 -11 8 -24 13 -29 6 -6 10 -23 10 -38 0 -32 5 -34 27 -13 20 21 36 8 28 -22
-4 -16 -1 -32 8 -42 13 -14 18 -35 29 -116 2 -12 -3 -20 -12 -20 -8 0 -16 10
-18 23 -2 12 -8 22 -13 22 -6 0 -15 13 -20 29 -6 16 -20 31 -31 34 -16 5 -19
11 -14 31 5 21 3 26 -13 26 -12 0 -21 -8 -23 -22 -2 -12 -9 -24 -17 -26 -11
-4 -12 0 -6 14 13 32 18 73 10 91 -9 22 -9 50 0 81 8 25 20 28 32 10z m553
-54 c0 -6 -7 -18 -16 -25 -14 -11 -18 -10 -30 5 -8 12 -10 25 -5 34 5 8 6 24
4 36 -4 18 -1 16 21 -9 14 -16 25 -35 26 -41z m715 56 c10 -15 -31 -50 -44
-37 -6 6 -11 16 -11 23 0 20 44 32 55 14z m1339 2 c2 -4 1 -14 -4 -22 -7 -11
-12 -12 -21 -3 -6 6 -8 16 -5 22 8 13 23 14 30 3z m-1430 -18 c19 -7 20 -21 4
-56 -14 -29 -63 -43 -86 -25 -9 7 -11 6 -6 -7 4 -11 0 -22 -12 -31 -27 -20
-37 -18 -31 6 3 12 1 30 -6 40 -15 24 -4 33 22 19 17 -9 21 -8 21 5 0 8 7 15
15 15 8 0 24 9 35 20 22 22 22 22 44 14z m-939 -14 c3 -5 -1 -10 -10 -10 -9 0
-13 5 -10 10 3 6 8 10 10 10 2 0 7 -4 10 -10z m-621 -21 c-3 -5 -10 -7 -15 -3
-5 3 -7 10 -3 15 3 5 10 7 15 3 5 -3 7 -10 3 -15z m526 -3 c0 -15 -37 -32 -47
-22 -9 8 17 36 33 36 8 0 14 -6 14 -14z m668 -14 c2 -7 -3 -12 -12 -12 -9 0
-16 7 -16 16 0 17 22 14 28 -4z m-324 -22 c8 -16 12 -30 9 -30 -10 0 -41 45
-36 52 7 13 11 10 27 -22z m486 20 c0 -5 -7 -10 -15 -10 -8 0 -15 5 -15 10 0
6 7 10 15 10 8 0 15 -4 15 -10z m-70 -10 c0 -5 -4 -10 -10 -10 -5 0 -10 5 -10
10 0 6 5 10 10 10 6 0 10 -4 10 -10z m-40 -15 c0 -8 -7 -15 -15 -15 -16 0 -20
12 -8 23 11 12 23 8 23 -8z m-1210 -10 c0 -8 -4 -15 -10 -15 -5 0 -10 7 -10
15 0 8 5 15 10 15 6 0 10 -7 10 -15z m170 -5 c0 -5 -4 -10 -10 -10 -5 0 -10 5
-10 10 0 6 5 10 10 10 6 0 10 -4 10 -10z m410 -10 c0 -5 -5 -10 -11 -10 -5 0
-7 5 -4 10 3 6 8 10 11 10 2 0 4 -4 4 -10z m112 -5 c0 -5 -5 -11 -11 -13 -6
-2 -11 4 -11 13 0 9 5 15 11 13 6 -2 11 -8 11 -13z m383 -15 c3 -5 1 -10 -4
-10 -6 0 -11 5 -11 10 0 6 2 10 4 10 3 0 8 -4 11 -10z m-785 -13 c0 -7 -8 -20
-17 -28 -10 -9 -25 -26 -33 -37 -18 -28 -30 -28 -30 -1 0 21 50 79 69 79 6 0
11 -6 11 -13z m980 3 c0 -5 8 -10 18 -10 22 0 48 -43 37 -60 -5 -9 -18 -1 -41
24 -34 38 -42 56 -24 56 6 0 10 -4 10 -10z m-2770 -36 c0 -8 -10 -14 -25 -14
-28 0 -30 3 -13 30 9 14 16 16 25 8 7 -6 13 -17 13 -24z m2124 27 c9 -14 -4
-41 -20 -41 -8 0 -14 8 -14 18 0 29 22 43 34 23z m994 -25 c3 -12 -1 -17 -10
-14 -7 3 -15 13 -16 22 -3 12 1 17 10 14 7 -3 15 -13 16 -22z m62 14 c0 -5 -7
-10 -16 -10 -8 0 -12 5 -9 10 3 6 10 10 16 10 5 0 9 -4 9 -10z m65 0 c3 -5 1
-10 -4 -10 -6 0 -11 5 -11 10 0 6 2 10 4 10 3 0 8 -4 11 -10z m-495 -10 c0 -5
-2 -10 -4 -10 -3 0 -8 5 -11 10 -3 6 -1 10 4 10 6 0 11 -4 11 -10z m572 -12
c-9 -9 -15 -9 -24 0 -9 9 -7 12 12 12 19 0 21 -3 12 -12z m-922 -22 c0 -17
-24 -27 -45 -20 -14 6 -13 8 2 20 23 17 43 18 43 0z m1865 -6 c3 -5 1 -10 -4
-10 -6 0 -11 5 -11 10 0 6 2 10 4 10 3 0 8 -4 11 -10z m-2615 -15 c0 -8 -4
-15 -10 -15 -5 0 -10 7 -10 15 0 8 5 15 10 15 6 0 10 -7 10 -15z m2587 -15 c2
-31 -11 -41 -21 -15 -6 16 2 45 13 45 3 0 7 -14 8 -30z m-1697 10 c0 -6 -8
-13 -17 -16 -10 -3 -26 -10 -36 -15 -30 -16 -34 0 -7 21 27 21 60 26 60 10z
m360 -10 c0 -5 -7 -10 -15 -10 -8 0 -15 5 -15 10 0 6 7 10 15 10 8 0 15 -4 15
-10z m-2984 -25 c8 -21 -6 -41 -17 -24 -12 19 -11 39 1 39 6 0 13 -7 16 -15z
m1645 0 c-1 -15 -24 -12 -29 3 -3 9 2 13 12 10 10 -1 17 -7 17 -13z m1801 -17
c-9 -9 -15 -9 -24 0 -10 10 -10 15 2 22 9 6 19 5 24 0 7 -7 6 -14 -2 -22z
m-1927 13 c3 -5 1 -12 -5 -16 -5 -3 -10 1 -10 9 0 18 6 21 15 7z m2970 -1 c3
-5 1 -10 -4 -10 -6 0 -11 5 -11 10 0 6 2 10 4 10 3 0 8 -4 11 -10z m-1403 -12
c-9 -9 -15 -9 -24 0 -9 9 -7 12 12 12 19 0 21 -3 12 -12z m598 -12 c0 -14 -5
-28 -10 -31 -13 -8 -24 20 -16 40 9 24 26 17 26 -9z m584 8 c4 -10 1 -14 -6
-12 -15 5 -23 28 -10 28 5 0 13 -7 16 -16z m-1124 -4 c0 -5 -2 -10 -4 -10 -3
0 -8 5 -11 10 -3 6 -1 10 4 10 6 0 11 -4 11 -10z m89 1 c9 -6 10 -10 2 -16
-16 -9 -44 2 -36 15 8 12 16 12 34 1z m-1001 -17 c-9 -10 -21 -13 -29 -8 -9 5
-8 9 7 15 31 12 39 10 22 -7z m2120 5 c-2 -6 -8 -10 -13 -10 -5 0 -11 4 -13
10 -2 6 4 11 13 11 9 0 15 -5 13 -11z m-728 -9 c0 -5 -4 -10 -10 -10 -5 0 -10
5 -10 10 0 6 5 10 10 10 6 0 10 -4 10 -10z m220 -6 c0 -17 -22 -14 -28 4 -2 7
3 12 12 12 9 0 16 -7 16 -16z m-1690 -3 c0 -5 -7 -14 -15 -21 -23 -19 -18 -37
15 -49 42 -14 37 -24 -7 -17 -21 3 -32 3 -25 0 6 -3 12 -12 12 -21 0 -10 -6
-12 -22 -8 -37 11 -41 21 -24 53 10 19 12 33 6 37 -24 15 -9 35 25 35 19 0 35
-4 35 -9z m520 -1 c0 -5 -4 -10 -10 -10 -5 0 -10 5 -10 10 0 6 5 10 10 10 6 0
10 -4 10 -10z m385 0 c3 -5 1 -10 -4 -10 -6 0 -11 5 -11 10 0 6 2 10 4 10 3 0
8 -4 11 -10z m1385 -15 c0 -8 -4 -15 -10 -15 -5 0 -10 7 -10 15 0 8 5 15 10
15 6 0 10 -7 10 -15z m-400 -15 c0 -5 -5 -10 -11 -10 -5 0 -7 5 -4 10 3 6 8
10 11 10 2 0 4 -4 4 -10z m-1015 -10 c3 -5 1 -10 -4 -10 -6 0 -11 5 -11 10 0
6 2 10 4 10 3 0 8 -4 11 -10z m93 -13 c2 -10 -3 -17 -11 -17 -18 0 -39 24 -30
34 12 12 38 2 41 -17z m1007 13 c3 -5 -1 -10 -9 -10 -9 0 -16 5 -16 10 0 6 4
10 9 10 6 0 13 -4 16 -10z m505 2 c0 -15 -11 -21 -27 -15 -12 5 -12 7 -1 14
17 11 28 11 28 1z m-92 -31 c3 -19 1 -21 -16 -12 -13 7 -22 7 -31 -2 -9 -9
-14 -9 -21 3 -13 20 4 36 37 35 21 -1 29 -7 31 -24z m-128 11 c0 -14 -11 -21
-26 -15 -8 3 -11 9 -8 14 7 11 34 12 34 1z m-1792 -24 c-6 -18 -28 -21 -28 -4
0 9 7 16 16 16 9 0 14 -5 12 -12z m-198 -18 c0 -11 -2 -20 -5 -20 -2 0 -9 9
-15 20 -9 16 -8 20 5 20 8 0 15 -9 15 -20z m-152 -24 c16 -31 23 -67 24 -108
1 -16 6 -28 13 -28 11 0 75 -173 75 -203 0 -7 9 -22 20 -32 23 -21 26 -45 6
-45 -7 0 -16 -9 -19 -21 -3 -12 -10 -18 -16 -15 -6 4 -8 13 -5 20 3 8 1 17 -5
21 -17 10 -13 28 4 21 17 -6 21 9 5 19 -6 3 -18 -1 -27 -11 -16 -15 -17 -15
-25 5 -4 12 -19 26 -32 32 -29 14 -64 78 -47 88 7 4 -2 31 -24 75 -19 37 -35
74 -35 82 0 8 -5 14 -11 14 -8 0 -9 11 -5 33 3 18 2 27 -2 19 -7 -11 -11 -10
-20 1 -9 11 -6 17 14 27 22 12 27 12 34 0 5 -8 7 -23 4 -32 -3 -10 -1 -18 4
-18 12 0 25 47 17 60 -9 15 5 31 23 28 9 -2 23 -16 30 -32z m2316 18 c10 -26
7 -34 -13 -34 -23 0 -37 30 -19 42 19 11 25 10 32 -8z m-166 -16 c-2 -17 -11
-24 -33 -26 l-30 -4 24 26 c30 32 43 33 39 4z m-110 -26 c2 -14 -2 -22 -11
-22 -9 0 -14 10 -14 25 0 31 21 28 25 -3z m-1387 -15 c-13 -13 -26 -3 -16 12
3 6 11 8 17 5 6 -4 6 -10 -1 -17z m1617 -51 c-2 -29 -8 -41 -18 -41 -14 0 -16
17 -9 70 1 6 -2 19 -7 30 -7 20 -7 20 15 1 17 -16 21 -29 19 -60z m-313 25
c-5 -24 -2 -30 14 -36 11 -3 22 -18 26 -35 3 -16 13 -34 21 -41 19 -16 18 -36
-5 -60 -14 -15 -25 -18 -46 -13 -25 6 -27 10 -25 58 2 28 2 57 1 64 -2 20 -21
14 -21 -8 0 -33 -27 -23 -28 10 0 17 3 30 8 30 5 0 16 14 25 30 20 39 39 39
30 1z m-1515 9 c0 -5 -4 -10 -10 -10 -5 0 -10 5 -10 10 0 6 5 10 10 10 6 0 10
-4 10 -10z m390 -15 c0 -8 -7 -15 -15 -15 -16 0 -20 12 -8 23 11 12 23 8 23
-8z m828 -2 c2 -7 -5 -16 -15 -19 -57 -18 -65 -24 -53 -39 15 -18 3 -19 -34
-5 -28 10 -36 40 -11 40 8 0 15 5 15 10 0 6 9 10 19 10 11 0 23 5 26 11 9 13
47 8 53 -8z m516 -5 c9 -36 7 -55 -6 -56 -62 -8 -63 -7 -66 21 -3 21 1 27 16
27 11 0 22 7 26 15 8 22 23 18 30 -7z m-3264 -13 c0 -8 -4 -15 -9 -15 -13 0
-22 16 -14 24 11 11 23 6 23 -9z m2110 0 c0 -9 -6 -12 -15 -9 -8 4 -15 10 -15
15 0 5 7 9 15 9 8 0 15 -7 15 -15z m369 -9 c10 -12 9 -14 -5 -12 -10 2 -20 8
-22 14 -5 17 13 15 27 -2z m-291 -17 c3 -16 -19 -22 -47 -13 -11 3 -11 7 -1
20 16 18 44 14 48 -7z m382 11 c0 -5 -4 -10 -10 -10 -5 0 -10 5 -10 10 0 6 5
10 10 10 6 0 10 -4 10 -10z m-3590 -10 c0 -5 -7 -10 -15 -10 -8 0 -15 5 -15
10 0 6 7 10 15 10 8 0 15 -4 15 -10z m2980 -22 c-12 -18 -27 -45 -33 -60 -6
-16 -18 -28 -26 -28 -11 0 -11 3 2 18 10 10 17 22 17 27 0 10 49 75 56 75 4 0
-4 -15 -16 -32z m1190 -2 c0 -13 5 -26 12 -28 14 -5 1 -28 -16 -28 -8 0 -13
15 -14 40 -1 22 3 40 8 40 6 0 10 -11 10 -24z m-2325 4 c3 -5 -1 -10 -9 -10
-9 0 -16 5 -16 10 0 6 4 10 9 10 6 0 13 -4 16 -10z m1785 -11 c0 -5 -4 -9 -10
-9 -5 0 -10 7 -10 16 0 8 5 12 10 9 6 -3 10 -10 10 -16z m778 -22 c2 -10 -3
-17 -12 -17 -9 0 -16 2 -16 4 0 2 -3 12 -6 21 -5 13 -2 16 12 13 10 -2 20 -11
22 -21z m-1178 -2 c0 -8 -4 -15 -10 -15 -5 0 -10 7 -10 15 0 8 5 15 10 15 6 0
10 -7 10 -15z m208 -2 c2 -8 -6 -13 -22 -13 -25 0 -33 10 -19 24 10 10 36 3
41 -11z m46 8 c9 -14 -4 -41 -20 -41 -8 0 -14 8 -14 18 0 29 22 43 34 23z
m773 -17 c-9 -9 -28 6 -21 18 4 6 10 6 17 -1 6 -6 8 -13 4 -17z m-649 -7 c3
-12 -3 -17 -22 -17 -28 0 -29 1 -20 25 8 20 38 15 42 -8z m267 3 c3 -5 1 -10
-4 -10 -6 0 -11 5 -11 10 0 6 2 10 4 10 3 0 8 -4 11 -10z m-1596 -41 c-11 -16
-28 -29 -37 -29 -14 0 -14 2 -3 9 8 5 11 16 8 24 -7 20 10 36 34 30 18 -5 18
-6 -2 -34z m503 16 c0 -5 -5 -11 -11 -13 -6 -2 -11 4 -11 13 0 9 5 15 11 13 6
-2 11 -8 11 -13z m558 0 c0 -7 -9 -17 -21 -20 -16 -5 -18 -10 -8 -21 6 -8 22
-14 36 -14 14 0 36 -12 52 -30 24 -27 31 -30 55 -21 19 8 32 7 45 -1 14 -8 25
-7 50 5 39 20 137 40 151 32 17 -10 12 -38 -6 -31 -10 4 -21 -4 -32 -24 -14
-25 -22 -29 -42 -25 -14 4 -26 10 -28 13 -13 35 -21 36 -46 7 -22 -25 -27 -27
-42 -14 -16 12 -17 12 -11 -4 4 -10 7 -23 7 -28 0 -4 6 -6 14 -3 11 4 13 0 9
-14 -4 -15 -13 -20 -39 -19 -34 1 -43 10 -24 22 28 17 3 25 -49 16 -2 -1 2 -8
9 -16 24 -29 -2 -14 -36 20 -27 28 -31 37 -19 41 8 4 15 17 15 30 0 18 -5 24
-22 24 -24 0 -98 58 -98 76 0 5 18 10 40 11 28 1 40 -2 40 -12z m1050 5 c0 -5
9 -10 20 -10 11 0 20 -4 20 -10 0 -11 -20 -13 -44 -4 -17 7 -22 34 -6 34 6 0
10 -4 10 -10z m-570 -10 c0 -5 -7 -10 -15 -10 -8 0 -15 5 -15 10 0 6 7 10 15
10 8 0 15 -4 15 -10z m120 -16 c0 -8 -7 -14 -15 -14 -17 0 -18 2 -9 24 7 18
24 12 24 -10z m-944 -22 c-10 -10 -29 15 -21 28 6 9 10 8 17 -4 6 -10 7 -20 4
-24z m-641 18 c3 -5 1 -10 -4 -10 -6 0 -11 5 -11 10 0 6 2 10 4 10 3 0 8 -4
11 -10z m1258 -27 c-3 -7 -9 -13 -13 -13 -14 0 -21 17 -14 34 5 12 9 13 19 3
7 -6 10 -18 8 -24z m97 27 c0 -5 -7 -10 -15 -10 -8 0 -15 5 -15 10 0 6 7 10
15 10 8 0 15 -4 15 -10z m77 -26 c-9 -9 -28 6 -21 18 4 6 10 6 17 -1 6 -6 8
-13 4 -17z m-57 -4 c0 -5 -5 -10 -11 -10 -5 0 -7 5 -4 10 3 6 8 10 11 10 2 0
4 -4 4 -10z m-2240 -10 c0 -5 -4 -10 -10 -10 -5 0 -10 5 -10 10 0 6 5 10 10
10 6 0 10 -4 10 -10z m1839 -41 c1 -3 -15 -5 -34 -6 -37 -1 -38 0 -29 34 l6
23 29 -23 c15 -12 28 -24 28 -28z m-2354 1 c7 -11 -43 -42 -55 -35 -13 8 -13
28 1 42 11 11 46 7 54 -7z m3243 -5 c-3 -3 -9 2 -12 12 -6 14 -5 15 5 6 7 -7
10 -15 7 -18z m-1548 5 c0 -5 -4 -10 -10 -10 -5 0 -10 5 -10 10 0 6 5 10 10
10 6 0 10 -4 10 -10z m1596 -21 c3 -6 -3 -20 -14 -32 -19 -19 -22 -19 -28 -4
-11 29 26 61 42 36z m-2536 -9 c0 -5 -4 -10 -10 -10 -5 0 -10 5 -10 10 0 6 5
10 10 10 6 0 10 -4 10 -10z m-1182 -22 c-3 -7 -18 -14 -34 -16 l-29 -3 25 15
c32 18 43 19 38 4z m1750 0 c-6 -18 -28 -21 -28 -4 0 9 7 16 16 16 9 0 14 -5
12 -12z m-1968 -13 c0 -8 -4 -15 -10 -15 -5 0 -10 7 -10 15 0 8 5 15 10 15 6
0 10 -7 10 -15z m3470 5 c0 -5 -5 -10 -11 -10 -5 0 -7 5 -4 10 3 6 8 10 11 10
2 0 4 -4 4 -10z m-1340 -8 c0 -13 -12 -22 -22 -16 -10 6 -1 24 13 24 5 0 9 -4
9 -8z m-3310 -12 c0 -5 -2 -10 -4 -10 -3 0 -8 5 -11 10 -3 6 -1 10 4 10 6 0
11 -4 11 -10z m1410 -14 c0 -8 -10 -13 -25 -13 -26 0 -34 12 -12 20 23 10 37
7 37 -7z m598 -4 c2 -7 -3 -12 -12 -12 -9 0 -16 7 -16 16 0 17 22 14 28 -4z
m2779 -9 c-3 -3 -11 -2 -17 2 -9 6 -9 10 1 16 14 8 27 -7 16 -18z m222 13 c14
-17 3 -76 -15 -76 -8 0 -14 -6 -15 -12 0 -8 -3 -7 -6 2 -3 8 -15 28 -26 44
-20 28 -20 29 -2 42 24 18 49 18 64 0z m126 3 c10 -15 -1 -23 -20 -15 -9 3
-13 10 -10 16 8 13 22 13 30 -1z m-1995 -20 c7 -11 13 -35 16 -52 2 -17 10
-35 19 -39 17 -10 21 -38 5 -38 -5 0 -10 5 -10 10 0 6 -7 10 -15 10 -8 0 -15
-2 -15 -4 0 -2 -3 -11 -6 -20 -5 -12 0 -16 20 -16 15 0 29 -7 33 -16 7 -20
-20 -68 -41 -72 -21 -4 -21 27 -1 34 12 5 13 10 4 20 -6 8 -17 14 -25 14 -14
0 -19 13 -30 74 -6 36 -5 39 15 33 11 -3 24 -1 27 4 3 5 -6 9 -20 9 -22 0 -25
3 -17 18 5 9 12 25 15 35 7 22 13 22 26 -4z m1395 1 c3 -5 1 -10 -5 -10 -7 0
-9 -7 -6 -16 3 -8 2 -12 -4 -9 -16 10 -11 -21 5 -35 20 -16 2 -40 -24 -33 -10
3 -22 0 -25 -6 -24 -38 -40 20 -18 59 12 22 22 28 35 24 16 -5 18 -2 12 15 -4
15 -2 21 9 21 8 0 18 -4 21 -10z m-2715 -10 c0 -5 -7 -10 -15 -10 -8 0 -15 5
-15 10 0 6 7 10 15 10 8 0 15 -4 15 -10z m-540 -21 c-7 -11 -14 -18 -17 -15
-3 3 0 12 7 21 18 21 23 19 10 -6z m3121 4 c13 -15 12 -15 -8 -4 -24 12 -29
21 -14 21 5 0 15 -7 22 -17z m427 -2 c6 -17 -38 -61 -61 -61 -10 0 -21 9 -24
20 -3 12 -14 20 -26 20 -26 0 -14 12 26 26 39 14 80 11 85 -5z m-3648 -6 c0
-8 -7 -15 -15 -15 -16 0 -20 12 -8 23 11 12 23 8 23 -8z m3690 7 c0 -13 -12
-22 -22 -16 -10 6 -1 24 13 24 5 0 9 -4 9 -8z m-435 -22 c3 -5 1 -10 -4 -10
-6 0 -11 5 -11 10 0 6 2 10 4 10 3 0 8 -4 11 -10z m133 -2 c-6 -18 -28 -21
-28 -4 0 9 7 16 16 16 9 0 14 -5 12 -12z m602 -7 c13 -25 13 -31 -2 -31 -23 0
-41 18 -35 34 9 22 24 20 37 -3z m70 9 c0 -5 -5 -10 -11 -10 -5 0 -7 5 -4 10
3 6 8 10 11 10 2 0 4 -4 4 -10z m-1300 -20 c0 -5 -9 -10 -21 -10 -11 0 -17 5
-14 10 3 6 13 10 21 10 8 0 14 -4 14 -10z m960 -5 c0 -8 -4 -15 -10 -15 -5 0
-7 -6 -4 -14 5 -14 -22 -31 -29 -18 -4 6 -2 48 2 60 4 10 41 -1 41 -13z m-715
-5 c3 -5 -1 -10 -9 -10 -9 0 -16 5 -16 10 0 6 4 10 9 10 6 0 13 -4 16 -10z
m205 0 c0 -5 -4 -10 -10 -10 -5 0 -10 5 -10 10 0 6 5 10 10 10 6 0 10 -4 10
-10z m-4125 -10 c3 -6 -1 -7 -9 -4 -18 7 -21 14 -7 14 6 0 13 -4 16 -10z
m4277 -45 c-4 -26 -22 -35 -22 -12 0 10 18 37 26 37 1 0 -1 -11 -4 -25z m618
16 c0 -6 -4 -13 -10 -16 -5 -3 -10 1 -10 9 0 9 5 16 10 16 6 0 10 -4 10 -9z
m-2210 -16 c0 -8 -6 -15 -14 -15 -20 0 -29 17 -14 23 22 9 28 7 28 -8z m769
-9 c-24 -23 -59 -30 -59 -12 0 10 9 16 24 16 14 0 28 5 31 11 4 6 10 8 13 4 3
-3 -1 -12 -9 -19z m861 4 c0 -5 -4 -10 -10 -10 -5 0 -10 5 -10 10 0 6 5 10 10
10 6 0 10 -4 10 -10z m370 -14 c0 -15 -14 -35 -21 -30 -15 9 -10 34 6 34 8 0
15 -2 15 -4z m-4000 -16 c0 -5 -7 -10 -16 -10 -8 0 -12 5 -9 10 3 6 10 10 16
10 5 0 9 -4 9 -10z m4220 0 c0 -5 -4 -10 -10 -10 -5 0 -10 5 -10 10 0 6 5 10
10 10 6 0 10 -4 10 -10z m-1744 -32 c-1 -17 -9 -24 -36 -29 -19 -4 -38 -5 -42
-3 -13 9 2 24 23 24 10 0 19 7 19 15 0 8 8 15 19 15 13 0 18 -7 17 -22z m134
13 c0 -5 3 -16 6 -25 8 -20 -19 -22 -35 -3 -8 10 -7 17 1 25 14 14 28 16 28 3z
m1076 -17 c-3 -30 -36 -56 -36 -29 0 11 25 49 37 54 1 1 0 -11 -1 -25z m341
-20 c10 -14 26 -35 36 -46 19 -20 17 -48 -3 -48 -12 0 -100 81 -100 92 0 5 7
8 15 8 8 0 15 5 15 10 0 18 19 10 37 -16z m-822 7 c3 -5 1 -12 -5 -16 -5 -3
-10 1 -10 9 0 18 6 21 15 7z m-1290 -19 c0 -18 -20 -15 -23 4 -3 10 1 15 10
12 7 -3 13 -10 13 -16z m585 -12 c0 -5 -7 -10 -15 -10 -8 0 -15 5 -15 10 0 6
7 10 15 10 8 0 15 -4 15 -10z m464 -11 c-3 -5 -10 -7 -15 -3 -5 3 -7 10 -3 15
3 5 10 7 15 3 5 -3 7 -10 3 -15z m593 -9 c-5 -34 -17 -35 -17 -1 0 19 4 30 10
26 5 -3 8 -15 7 -25z m-1214 -20 c12 -18 15 -18 20 -5 8 19 43 20 50 1 4 -10
-2 -16 -16 -18 -28 -4 -35 -68 -8 -68 23 0 67 -47 63 -69 -1 -10 8 -23 23 -31
17 -9 22 -17 15 -24 -13 -13 -13 -39 0 -31 6 3 10 -1 10 -9 0 -10 9 -16 23
-16 28 0 82 -53 72 -70 -4 -7 -2 -16 5 -20 8 -5 13 -24 12 -44 -1 -20 3 -36 9
-36 7 0 9 -10 4 -27 -6 -26 -5 -27 11 -11 13 13 15 20 6 31 -7 8 -9 16 -6 20
20 19 85 -46 78 -78 -2 -11 5 -31 17 -44 16 -20 22 -22 29 -11 5 8 12 11 16 7
14 -13 -18 -37 -42 -31 -29 7 -30 -5 -4 -39 11 -14 20 -30 20 -36 0 -6 2 -11
4 -11 2 0 12 -3 21 -6 13 -5 15 -2 9 21 -6 25 -5 26 15 13 11 -7 21 -21 21
-31 0 -9 6 -26 12 -37 9 -14 10 -27 2 -47 -12 -33 -8 -53 11 -53 7 0 15 -9 18
-20 3 -11 1 -18 -4 -14 -15 9 -10 -13 7 -26 15 -13 44 -73 44 -91 0 -17 -19
-9 -25 11 -5 14 -15 20 -38 20 -30 1 -31 2 -13 15 18 13 17 16 -13 56 -17 24
-31 53 -31 66 0 13 -5 23 -10 23 -6 0 -16 11 -22 25 -12 28 -28 33 -28 10 0
-8 5 -15 10 -15 6 0 10 -11 10 -25 0 -16 -6 -25 -15 -25 -8 0 -15 8 -15 19 0
10 -7 24 -15 31 -8 7 -15 19 -15 26 0 8 7 14 15 14 8 0 15 7 15 16 0 27 -69
124 -88 124 -15 0 -42 40 -42 63 0 5 -10 23 -22 40 -52 72 -92 153 -84 172 3
8 -3 17 -15 20 -10 4 -19 10 -19 15 0 5 -11 21 -25 36 -14 15 -25 35 -25 44 0
9 -11 22 -25 28 -14 6 -25 19 -25 27 0 9 -14 33 -30 54 -26 32 -29 41 -21 64
13 32 25 34 44 7z m-1053 0 c0 -5 -4 -10 -10 -10 -5 0 -10 5 -10 10 0 6 5 10
10 10 6 0 10 -4 10 -10z m1650 -4 c0 -11 -19 -15 -25 -6 -3 5 1 10 9 10 9 0
16 -2 16 -4z m-352 -54 c-7 -9 -23 -28 -35 -42 l-23 -25 0 23 c0 12 6 22 13
22 8 0 19 12 25 26 7 14 17 22 23 19 7 -5 6 -12 -3 -23z m-2568 14 c0 -3 -4
-8 -10 -11 -5 -3 -10 -1 -10 4 0 6 5 11 10 11 6 0 10 -2 10 -4z m1420 -26 c0
-5 -7 -10 -16 -10 -8 0 -12 5 -9 10 3 6 10 10 16 10 5 0 9 -4 9 -10z m-794
-48 c-11 -10 -15 4 -8 28 l7 25 3 -23 c2 -13 1 -26 -2 -30z m-2596 34 c0 -2
-7 -6 -15 -10 -8 -3 -15 -1 -15 4 0 6 7 10 15 10 8 0 15 -2 15 -4z m3330 -42
c0 -17 -22 -14 -28 4 -2 7 3 12 12 12 9 0 16 -7 16 -16z m1674 -25 c-3 -5 -10
-7 -15 -3 -5 3 -7 10 -3 15 3 5 10 7 15 3 5 -3 7 -10 3 -15z m1041 11 c3 -5
-1 -10 -9 -10 -9 0 -16 5 -16 10 0 6 4 10 9 10 6 0 13 -4 16 -10z m-1587 -29
c-7 -12 -16 -21 -21 -21 -4 0 0 11 10 24 22 29 30 27 11 -3z m-4326 2 c26 -24
23 -67 -5 -80 -27 -12 -36 -8 -54 24 -17 29 -17 30 7 36 11 3 20 12 20 21 0
20 9 20 32 -1z m5778 -3 c0 -5 -4 -10 -10 -10 -5 0 -10 5 -10 10 0 6 5 10 10
10 6 0 10 -4 10 -10z m353 -32 c-16 -6 -16 -7 5 -14 26 -8 26 -8 7 -38 -11
-17 -22 -22 -39 -19 -36 7 -42 47 -14 82 21 27 24 27 41 13 18 -16 18 -17 0
-24z m-213 22 c0 -5 -4 -10 -10 -10 -5 0 -10 5 -10 10 0 6 5 10 10 10 6 0 10
-4 10 -10z m-3371 -26 c3 -16 1 -17 -13 -5 -19 16 -21 34 -3 29 6 -3 14 -13
16 -24z m2216 6 c3 -5 2 -10 -4 -10 -5 0 -13 5 -16 10 -3 6 -2 10 4 10 5 0 13
-4 16 -10z m-1078 -26 c-3 -3 -12 -4 -19 -1 -8 3 -5 6 6 6 11 1 17 -2 13 -5z
m2253 -8 c0 -14 -29 -31 -38 -22 -2 3 -2 12 1 21 8 19 37 20 37 1z m-3960 -17
c0 -5 -7 -9 -15 -9 -8 0 -15 7 -15 15 0 9 6 12 15 9 8 -4 15 -10 15 -15z m912
6 c0 -5 -5 -11 -11 -13 -6 -2 -11 4 -11 13 0 9 5 15 11 13 6 -2 11 -8 11 -13z
m258 -35 c0 -19 -11 -26 -23 -14 -8 8 3 34 14 34 5 0 9 -9 9 -20z m-3144 -27
c-11 -11 -19 6 -11 24 8 17 8 17 12 0 3 -10 2 -21 -1 -24z m4052 -18 c-1 -47
-10 -61 -28 -50 -8 5 -7 11 1 21 6 7 8 21 5 30 -8 21 2 56 14 49 4 -3 8 -25 8
-50z m822 51 c0 -3 -4 -8 -10 -11 -5 -3 -10 -1 -10 4 0 6 5 11 10 11 6 0 10
-2 10 -4z m-2542 -27 c-2 -6 -8 -10 -13 -10 -5 0 -11 4 -13 10 -2 6 4 11 13
11 9 0 15 -5 13 -11z m2789 -10 c68 -37 77 -72 22 -84 -16 -4 -31 -11 -34 -16
-11 -17 -40 -9 -58 16 -15 21 -16 31 -7 65 12 46 24 49 77 19z m-5022 1 c-3
-5 -11 -10 -16 -10 -6 0 -7 5 -4 10 3 6 11 10 16 10 6 0 7 -4 4 -10z m2678 3
c8 -7 -21 -43 -35 -43 -13 0 -9 38 5 43 18 8 23 8 30 0z m1337 -24 c0 -6 -4
-7 -10 -4 -5 3 -10 11 -10 16 0 6 5 7 10 4 6 -3 10 -11 10 -16z m-1304 -14
c-1 -19 -7 -25 -23 -25 -14 0 -23 6 -23 15 0 8 9 15 21 15 11 0 17 5 14 10 -3
6 -2 10 3 10 6 0 9 -11 8 -25z m3269 16 c-16 -15 -48 -17 -52 -3 -3 8 6 12 28
12 20 0 29 -4 24 -9z m-3446 -15 c6 -8 13 -28 14 -44 1 -20 8 -33 20 -36 9 -2
17 -12 17 -21 0 -12 -6 -16 -20 -12 -10 3 -21 0 -23 -6 -5 -16 -27 1 -27 22 0
9 5 22 11 28 9 9 8 16 -5 28 -17 17 -22 55 -7 55 5 0 14 -6 20 -14z m671 -1
c0 -16 -27 -32 -37 -22 -3 4 -3 13 0 22 8 20 37 20 37 0z m1269 -11 c3 -16 1
-17 -13 -5 -19 16 -21 34 -3 29 6 -3 14 -13 16 -24z m771 16 c0 -5 -7 -10 -15
-10 -8 0 -15 5 -15 10 0 6 7 10 15 10 8 0 15 -4 15 -10z m60 -10 c0 -5 -4 -10
-10 -10 -5 0 -10 5 -10 10 0 6 5 10 10 10 6 0 10 -4 10 -10z m98 -33 c14 -15
18 -27 12 -37 -8 -12 -11 -12 -27 2 -10 9 -30 20 -45 23 -16 4 -28 10 -28 14
0 29 60 28 88 -2z m668 -52 c-3 -43 -28 -95 -45 -95 -12 0 -18 38 -13 88 3 33
8 42 23 42 10 0 19 5 19 11 0 5 4 8 9 4 5 -3 8 -25 7 -50z m-2806 41 c0 -3 -4
-8 -10 -11 -5 -3 -10 -1 -10 4 0 6 5 11 10 11 6 0 10 -2 10 -4z m776 -22 c-3
-7 -1 -16 5 -20 6 -3 8 -12 5 -19 -2 -7 5 -32 17 -56 27 -53 33 -101 13 -93
-20 7 -46 77 -46 119 0 19 -4 35 -8 35 -6 0 -9 45 -3 58 4 11 21 -13 17 -24z
m1414 16 c0 -5 -5 -10 -11 -10 -5 0 -7 5 -4 10 3 6 8 10 11 10 2 0 4 -4 4 -10z
m25 0 c3 -5 1 -10 -4 -10 -6 0 -11 5 -11 10 0 6 2 10 4 10 3 0 8 -4 11 -10z
m-1510 -20 c3 -5 1 -10 -4 -10 -6 0 -11 5 -11 10 0 6 2 10 4 10 3 0 8 -4 11
-10z m245 0 c0 -5 -4 -10 -10 -10 -5 0 -10 5 -10 10 0 6 5 10 10 10 6 0 10 -4
10 -10z m1145 -10 c3 -5 1 -10 -4 -10 -6 0 -11 5 -11 10 0 6 2 10 4 10 3 0 8
-4 11 -10z m355 -11 c0 -12 -29 -24 -37 -16 -3 4 -3 13 0 21 6 16 37 11 37 -5z
m-2434 -4 c-4 -10 3 -19 18 -25 18 -7 23 -14 19 -30 -3 -11 -9 -22 -13 -25 -5
-3 -6 -14 -3 -25 5 -17 0 -20 -27 -20 -29 0 -32 2 -26 24 3 14 2 27 -3 31 -8
4 -41 62 -41 71 0 1 8 0 19 -3 10 -3 22 0 25 6 11 17 39 13 32 -4z m2184 -5
c0 -5 -4 -10 -10 -10 -5 0 -10 5 -10 10 0 6 5 10 10 10 6 0 10 -4 10 -10z
m-5446 -21 c5 -4 2 -23 -8 -44 -9 -19 -14 -40 -11 -45 13 -21 -17 -9 -40 16
-23 24 -23 25 -30 5 -8 -25 -43 -28 -52 -4 -4 10 2 23 16 34 15 12 18 20 10
25 -17 10 50 32 81 26 14 -2 29 -8 34 -13z m2016 5 c0 -11 -8 -14 -27 -12 -39
4 -42 28 -4 28 21 0 31 -5 31 -16z m3887 -34 c17 -25 39 -26 52 -3 5 10 12 15
16 11 3 -3 0 -17 -7 -30 -7 -12 -14 -24 -15 -26 -5 -11 -62 -7 -92 6 -20 8
-45 16 -56 16 -13 1 -20 8 -20 21 0 38 96 43 122 5z m-3227 -16 c0 -13 -4 -24
-10 -24 -5 0 -10 14 -10 31 0 17 4 28 10 24 6 -3 10 -17 10 -31z m1307 5 c-13
-21 -57 -26 -57 -6 0 21 20 34 45 29 21 -3 22 -7 12 -23z m1523 21 c0 -5 -5
-10 -11 -10 -5 0 -7 5 -4 10 3 6 8 10 11 10 2 0 4 -4 4 -10z m-4855 -10 c-3
-5 -10 -10 -16 -10 -5 0 -9 5 -9 10 0 6 7 10 16 10 8 0 12 -4 9 -10z m1382 4
c-3 -3 -12 -4 -19 -1 -8 3 -5 6 6 6 11 1 17 -2 13 -5z m-1977 -14 c0 -5 -5
-10 -11 -10 -6 0 -9 -9 -6 -20 3 -13 0 -20 -8 -20 -16 0 -29 35 -20 50 8 13
45 13 45 0z m3420 -5 c7 -9 10 -18 7 -21 -10 -11 -37 5 -37 21 0 19 14 19 30
0z m-1360 -26 c0 -10 -6 -19 -14 -19 -19 0 -30 31 -14 41 17 10 28 2 28 -22z
m-1737 -18 c-1 -19 -9 -41 -17 -49 -14 -14 -16 -14 -22 4 -3 10 -11 29 -17 42
-13 27 4 44 38 40 16 -2 20 -10 18 -37z m4577 19 c0 -5 -4 -10 -10 -10 -5 0
-10 5 -10 10 0 6 5 10 10 10 6 0 10 -4 10 -10z m100 0 c0 -5 -4 -10 -10 -10
-5 0 -10 5 -10 10 0 6 5 10 10 10 6 0 10 -4 10 -10z m120 -5 c0 -8 -6 -15 -14
-15 -17 0 -28 14 -19 24 12 12 33 6 33 -9z m-1215 -38 c0 -26 -20 -25 -23 2
-3 16 1 22 10 19 7 -3 13 -12 13 -21z m-1780 -27 c-20 -7 -45 9 -45 30 0 6 12
4 32 -6 29 -15 31 -18 13 -24z m3255 21 c0 -19 -12 -41 -20 -36 -10 6 -1 45
11 45 5 0 9 -4 9 -9z m460 -3 c-1 -26 -68 -88 -94 -88 -19 0 0 33 37 64 45 38
57 43 57 24z m40 2 c0 -5 -4 -10 -10 -10 -5 0 -10 5 -10 10 0 6 5 10 10 10 6
0 10 -4 10 -10z m-5830 -20 c0 -5 -8 -10 -17 -10 -17 -1 -17 -1 0 -14 36 -28
10 -50 -27 -23 -16 12 -17 16 -5 35 14 22 49 31 49 12z m3750 -11 c0 -24 -23
-21 -28 4 -2 10 3 17 12 17 10 0 16 -9 16 -21z m-1770 -9 c0 -11 -4 -20 -10
-20 -5 0 -10 9 -10 20 0 11 5 20 10 20 6 0 10 -9 10 -20z m3870 -6 c0 -17 -22
-14 -28 4 -2 7 3 12 12 12 9 0 16 -7 16 -16z m-3751 -17 c13 -17 5 -27 -23
-27 -17 0 -18 2 -6 10 10 6 11 10 3 10 -7 0 -13 5 -13 10 0 15 26 12 39 -3z
m-79 -1 c0 -3 -4 -8 -10 -11 -5 -3 -10 -1 -10 4 0 6 5 11 10 11 6 0 10 -2 10
-4z m1941 -13 c0 -16 1 -15 8 2 6 15 9 10 15 -23 8 -50 1 -68 -20 -51 -7 6
-11 15 -8 20 3 5 -2 9 -10 9 -17 0 -20 17 -10 44 8 21 24 20 25 -1z m-651 -3
c0 -5 -5 -10 -11 -10 -5 0 -7 5 -4 10 3 6 8 10 11 10 2 0 4 -4 4 -10z m960 0
c0 -5 -4 -10 -10 -10 -5 0 -10 5 -10 10 0 6 5 10 10 10 6 0 10 -4 10 -10z
m760 0 c0 -5 -5 -10 -11 -10 -5 0 -7 5 -4 10 3 6 8 10 11 10 2 0 4 -4 4 -10z
m-2870 -32 c18 -23 18 -23 39 -4 17 15 24 17 34 7 9 -9 7 -13 -10 -17 -12 -4
-25 -15 -28 -25 -7 -20 -35 -27 -35 -8 0 6 -9 24 -21 40 -24 34 -6 40 21 7z
m-2387 -17 c4 -18 14 -32 27 -36 26 -8 25 -23 -2 -36 -64 -29 -78 -41 -79 -67
-1 -17 -3 -20 -6 -9 -2 9 -9 17 -14 17 -12 0 -12 67 1 75 6 3 10 21 10 39 0
39 6 46 35 46 17 0 24 -8 28 -29z m3287 14 c0 -8 -7 -15 -15 -15 -8 0 -15 7
-15 15 0 8 7 15 15 15 8 0 15 -7 15 -15z m-2637 -9 c7 -18 -1 -26 -29 -26 -25
0 -39 14 -29 30 9 15 52 12 58 -4z m2654 -18 c-3 -8 -6 -5 -6 6 -1 11 2 17 5
13 3 -3 4 -12 1 -19z m2620 16 c-3 -3 -12 -4 -19 -1 -8 3 -5 6 6 6 11 1 17 -2
13 -5z m-5604 -29 c1 -5 -6 -11 -15 -13 -11 -2 -18 3 -18 13 0 17 30 18 33 0z
m3529 -15 c27 -27 28 -30 9 -30 -22 0 -61 32 -61 50 0 18 21 10 52 -20z m1418
15 c0 -8 -4 -15 -10 -15 -5 0 -7 7 -4 15 4 8 8 15 10 15 2 0 4 -7 4 -15z m274
-1 c8 -21 -1 -34 -25 -34 -12 0 -19 7 -19 18 0 34 33 45 44 16z m-2974 -19 c0
-30 -11 -32 -33 -7 -19 21 -13 32 15 32 13 0 18 -7 18 -25z m878 8 c2 -8 -5
-13 -17 -13 -21 0 -35 13 -24 24 10 10 36 3 41 -11z m157 -11 c0 -18 -20 -15
-23 4 -3 10 1 15 10 12 7 -3 13 -10 13 -16z m1975 -3 c0 -6 -4 -7 -10 -4 -5 3
-10 11 -10 16 0 6 5 7 10 4 6 -3 10 -11 10 -16z m270 9 c0 -18 -79 -98 -96
-98 -8 0 -14 -8 -14 -18 0 -10 -11 -29 -26 -42 -21 -20 -27 -22 -34 -10 -6 10
5 29 42 70 98 105 128 128 128 98z m350 2 c0 -5 -2 -10 -4 -10 -3 0 -8 5 -11
10 -3 6 -1 10 4 10 6 0 11 -4 11 -10z m-3727 -25 c11 27 25 16 32 -27 7 -41
13 -52 49 -88 11 -11 17 -22 14 -25 -7 -7 -58 34 -58 46 0 5 -18 25 -40 45
-22 20 -40 43 -40 52 0 13 3 13 19 -2 16 -15 19 -15 24 -1z m1027 5 c0 -5 -7
-10 -15 -10 -8 0 -15 5 -15 10 0 6 7 10 15 10 8 0 15 -4 15 -10z m-856 -25
c10 -7 15 -18 12 -24 -4 -6 4 -13 18 -17 14 -3 31 -13 38 -22 12 -14 9 -15
-22 -8 -32 6 -100 59 -100 78 0 13 33 9 54 -7z m3036 5 c0 -5 -4 -10 -10 -10
-5 0 -10 5 -10 10 0 6 5 10 10 10 6 0 10 -4 10 -10z m337 -12 c-3 -8 -6 -5 -6
6 -1 11 2 17 5 13 3 -3 4 -12 1 -19z m-1919 -38 c3 -40 1 -43 -11 -30 -8 8
-18 30 -22 48 -6 29 -5 33 12 30 14 -2 19 -14 21 -48z m-444 31 c3 -4 3 -11 0
-14 -8 -8 -34 3 -34 14 0 11 27 12 34 0z m1756 1 c0 -11 -22 -32 -32 -32 -5 0
-4 9 2 20 11 20 30 28 30 12z m-105 -12 c3 -5 2 -10 -4 -10 -5 0 -13 5 -16 10
-3 6 -2 10 4 10 5 0 13 -4 16 -10z m-4915 -30 c0 -9 -31 -30 -44 -30 -4 0 -1
9 6 20 13 21 38 27 38 10z m1912 -17 c16 -14 24 -15 50 -5 34 13 56 6 39 -11
-6 -6 -11 -21 -11 -33 0 -29 -14 -38 -40 -24 -14 7 -26 8 -39 0 -11 -5 -34 -7
-51 -4 -28 6 -31 10 -25 32 5 21 40 61 54 62 3 0 13 -8 23 -17z m1390 -13 c4
-28 4 -29 -14 -13 -21 19 -24 43 -4 43 8 0 16 -13 18 -30z m-3250 -17 c4 -17
15 -36 23 -43 19 -16 19 -30 0 -30 -8 0 -15 7 -15 15 0 8 -4 15 -10 15 -5 0
-10 5 -10 11 0 7 -7 17 -17 24 -10 7 -14 19 -10 29 10 25 30 14 39 -21z m4843
27 c-3 -5 -13 -10 -21 -10 -8 0 -12 5 -9 10 3 6 13 10 21 10 8 0 12 -4 9 -10z
m860 -30 c3 -5 -3 -10 -15 -10 -12 0 -18 5 -15 10 3 6 10 10 15 10 5 0 12 -4
15 -10z m-3198 -22 c-3 -8 -6 -5 -6 6 -1 11 2 17 5 13 3 -3 4 -12 1 -19z m463
12 c0 -5 -6 -10 -14 -10 -8 0 -18 5 -21 10 -3 6 3 10 14 10 12 0 21 -4 21 -10z
m2576 -18 c10 -15 8 -18 -7 -19 -21 -2 -33 12 -24 27 9 15 19 12 31 -8z
m-3910 -3 c10 -17 -13 -36 -27 -22 -12 12 -4 33 11 33 5 0 12 -5 16 -11z
m2859 2 c7 -12 -12 -24 -25 -16 -11 7 -4 25 10 25 5 0 11 -4 15 -9z m714 -23
c-1 -26 -62 -82 -81 -76 -8 3 -1 16 20 37 17 18 32 39 32 47 0 8 7 14 15 14 9
0 15 -9 14 -22z m-3019 -20 c36 -40 37 -48 6 -48 -18 0 -29 9 -40 32 -30 58
-12 66 34 16z m174 19 c27 0 28 -1 11 -13 -19 -14 -67 -19 -78 -8 -12 12 6 35
22 28 9 -4 29 -7 45 -7z m1886 -27 c0 -11 -7 -20 -15 -20 -8 0 -15 9 -15 20 0
11 7 20 15 20 8 0 15 -9 15 -20z m360 -11 c0 -12 -29 -24 -37 -16 -3 4 -3 13
0 21 6 16 37 11 37 -5z m1110 -15 c0 -8 -7 -14 -15 -14 -17 0 -18 2 -9 24 7
18 24 12 24 -10z m-3160 -25 c0 -16 -31 -22 -43 -10 -9 9 -9 14 2 20 16 10 41
4 41 -10z m791 -5 c12 -33 5 -42 -16 -20 -22 21 -45 20 -46 -1 -1 -16 -2 -16
-6 0 -5 19 21 46 45 47 7 0 17 -12 23 -26z m995 -9 c16 -14 34 -25 41 -25 6 0
18 -14 27 -31 12 -23 13 -36 4 -55 -19 -41 -64 -25 -52 19 4 16 2 27 -4 27 -6
0 -14 10 -18 22 -12 38 -33 53 -55 40 -28 -18 -35 -14 -13 7 25 26 36 26 70
-4z m224 15 c0 -5 -4 -10 -10 -10 -5 0 -10 5 -10 10 0 6 5 10 10 10 6 0 10 -4
10 -10z m-2840 -15 c0 -8 -6 -15 -14 -15 -8 0 -21 -3 -30 -6 -10 -4 -16 -1
-16 9 0 13 9 18 53 26 4 0 7 -6 7 -14z m-2130 -6 c0 -18 -29 -41 -47 -37 -28
5 -28 36 -1 41 41 8 48 7 48 -4z m2051 -22 c-16 -16 -26 0 -10 19 9 11 15 12
17 4 2 -6 -1 -17 -7 -23z m3459 13 c0 -5 -4 -10 -10 -10 -5 0 -10 5 -10 10 0
6 5 10 10 10 6 0 10 -4 10 -10z m-3320 -25 c0 -16 -6 -25 -15 -25 -9 0 -15 9
-15 25 0 16 6 25 15 25 9 0 15 -9 15 -25z m790 15 c0 -5 -4 -10 -10 -10 -5 0
-10 5 -10 10 0 6 5 10 10 10 6 0 10 -4 10 -10z m257 -30 c28 -22 19 -26 -22
-10 -14 5 -23 14 -20 20 9 14 13 13 42 -10z m-3241 -27 c-5 -12 -10 -13 -18
-5 -8 8 -8 15 3 28 15 18 25 4 15 -23z m3700 9 c-18 -16 -18 -16 -6 6 6 13 14
21 18 18 3 -4 -2 -14 -12 -24z m1232 6 c-2 -15 -11 -24 -25 -26 -27 -4 -30 15
-5 34 25 19 34 17 30 -8z m-1893 2 c3 -6 -1 -13 -9 -16 -9 -3 -13 -10 -10 -15
3 -5 -1 -9 -8 -9 -15 0 -40 35 -31 44 10 10 51 7 58 -4z m1521 -16 c19 -15 19
-15 -2 -9 -17 4 -23 0 -28 -20 -6 -25 -29 -34 -41 -15 -8 12 23 60 39 60 7 0
21 -7 32 -16z m-1841 -4 c3 -5 2 -10 -4 -10 -5 0 -13 5 -16 10 -3 6 -2 10 4
10 5 0 13 -4 16 -10z m1675 -5 c0 -8 -7 -15 -15 -15 -16 0 -20 12 -8 23 11 12
23 8 23 -8z m810 5 c13 -8 12 -10 -2 -10 -10 0 -18 -4 -18 -10 0 -5 -4 -10
-10 -10 -5 0 -10 9 -10 20 0 22 16 26 40 10z m250 0 c0 -5 -2 -10 -4 -10 -2 0
-12 -3 -20 -6 -12 -5 -15 -2 -10 10 7 17 34 22 34 6z m-3500 -25 c0 -8 -7 -11
-20 -8 -16 4 -18 8 -9 19 13 16 29 10 29 -11z m130 4 c0 -5 -4 -9 -10 -9 -5 0
-10 7 -10 16 0 8 5 12 10 9 6 -3 10 -10 10 -16z m3946 -24 c0 -42 -7 -44 -23
-9 -13 29 -9 44 11 44 7 0 12 -14 12 -35z m-4016 -20 c-13 -25 -60 -36 -60
-15 0 6 -10 10 -22 10 -21 1 -21 2 -5 11 10 6 25 8 34 5 10 -4 21 2 31 15 21
30 40 8 22 -26z m2905 30 c11 -5 24 -9 30 -9 17 -2 17 -36 1 -42 -9 -3 -16
-12 -16 -19 0 -7 -6 -16 -12 -18 -7 -3 1 -6 18 -6 17 -1 37 -8 44 -16 14 -17
46 -20 55 -5 4 6 11 8 16 5 5 -4 9 3 9 14 0 12 7 21 15 21 18 0 18 1 4 -41 -7
-19 -22 -45 -34 -59 -26 -29 -39 -81 -19 -73 7 2 20 1 29 -5 15 -8 15 -10 2
-24 -9 -8 -21 -35 -27 -59 -12 -45 -24 -59 -49 -59 -10 0 -12 8 -7 30 3 17 1
30 -3 30 -5 0 -12 14 -16 30 -4 17 -12 31 -18 31 -7 1 -19 2 -27 3 -8 0 -16
10 -18 21 -3 11 -9 23 -15 27 -7 4 -7 11 2 22 11 13 10 19 -10 36 -13 10 -27
19 -31 20 -11 0 -10 30 0 30 5 0 7 14 4 30 -3 24 -1 30 13 30 14 0 16 6 12 29
-6 26 6 44 23 36 3 -1 14 -6 25 -10z m1195 11 c0 -11 -19 -15 -25 -6 -3 5 1
10 9 10 9 0 16 -2 16 -4z m-2970 -26 c0 -5 9 -12 20 -15 11 -4 17 -11 14 -17
-4 -6 -10 -6 -17 1 -7 7 -16 7 -29 0 -24 -13 -48 -5 -48 16 0 9 4 14 9 11 5
-3 11 1 15 9 5 15 36 10 36 -5z m715 10 c3 -5 1 -10 -4 -10 -6 0 -11 5 -11 10
0 6 2 10 4 10 3 0 8 -4 11 -10z m1285 -15 c-7 -9 -15 -13 -19 -10 -3 3 1 10 9
15 21 14 24 12 10 -5z m-2910 -15 c0 -5 -7 -10 -15 -10 -8 0 -15 5 -15 10 0 6
7 10 15 10 8 0 15 -4 15 -10z m2770 -11 c0 -5 -7 -9 -15 -9 -15 0 -20 12 -9
23 8 8 24 -1 24 -14z m353 15 c11 -11 -5 -34 -24 -34 -22 0 -24 11 -7 28 13
13 22 15 31 6z m517 -10 c0 -17 -22 -14 -28 4 -2 7 3 12 12 12 9 0 16 -7 16
-16z m-3948 -36 c-15 -15 -24 -6 -16 16 5 12 10 14 17 7 8 -8 8 -14 -1 -23z
m1546 -7 c-7 -11 -19 -21 -26 -21 -9 0 -9 7 4 31 10 21 19 28 26 21 6 -6 5
-17 -4 -31z m452 29 c0 -5 -4 -10 -10 -10 -5 0 -10 5 -10 10 0 6 5 10 10 10 6
0 10 -4 10 -10z m1345 -20 c-3 -5 -13 -10 -21 -10 -8 0 -12 5 -9 10 3 6 13 10
21 10 8 0 12 -4 9 -10z m615 0 c0 -5 -7 -10 -16 -10 -8 0 -12 5 -9 10 3 6 10
10 16 10 5 0 9 -4 9 -10z m-2280 -8 c0 -10 -41 -35 -47 -28 -9 8 17 36 33 36
8 0 14 -3 14 -8z m-354 -13 c4 -8 9 -8 17 0 15 15 27 14 27 -4 0 -8 14 -22 31
-30 18 -10 29 -22 26 -30 -4 -9 7 -15 34 -19 29 -5 43 -13 51 -31 6 -14 17
-25 25 -25 7 0 16 -7 19 -15 4 -8 10 -13 14 -10 5 3 11 1 15 -5 3 -5 19 -10
36 -10 18 0 29 -5 29 -14 0 -18 -22 -26 -76 -26 -37 0 -45 3 -43 18 3 29 -1
38 -10 23 -11 -17 -41 -7 -41 14 0 8 5 15 10 15 6 0 10 4 10 8 0 4 -15 6 -34
4 -18 -2 -37 1 -40 7 -10 16 -46 13 -46 -3 0 -8 4 -17 10 -21 12 -8 1 -37 -22
-53 -22 -16 -23 -32 -3 -32 17 0 19 -14 5 -40 -8 -15 -7 -17 12 -12 18 4 20 2
13 -14 -4 -10 -10 -40 -12 -66 -7 -62 -26 -62 -53 -1 -11 26 -32 62 -46 81
-14 18 -23 36 -20 39 3 4 -1 15 -11 25 -18 20 -10 39 9 20 15 -15 37 -15 71 1
21 9 26 17 21 32 -4 11 -6 45 -5 76 2 50 -1 58 -24 73 -25 16 -34 36 -16 36 6
0 13 -5 17 -11z m1518 -10 c-3 -6 0 -15 7 -20 10 -6 11 -11 2 -20 -13 -13 -36
-3 -27 12 3 5 0 16 -6 24 -10 12 -9 15 9 15 14 0 20 -4 15 -11z m256 1 c0 -5
-4 -10 -10 -10 -5 0 -10 5 -10 10 0 6 5 10 10 10 6 0 10 -4 10 -10z m-2184
-11 c3 -6 1 -16 -4 -21 -13 -13 -45 8 -36 23 7 12 31 11 40 -2z m-873 -25 c3
-4 -1 -17 -10 -31 -20 -30 -41 -16 -24 16 12 21 23 26 34 15z m1904 -16 c-3
-8 -6 -5 -6 6 -1 11 2 17 5 13 3 -3 4 -12 1 -19z m-1783 -20 c-8 -13 -40 -9
-53 5 -6 8 -8 16 -5 19 8 9 64 -15 58 -24z m1034 20 c14 -14 17 -62 3 -54 -12
8 -32 66 -22 66 4 0 12 -5 19 -12z m-588 -18 c0 -14 -33 -21 -41 -8 -5 8 -2
15 9 19 19 7 32 3 32 -11z m2675 10 c3 -5 1 -10 -4 -10 -6 0 -11 5 -11 10 0 6
2 10 4 10 3 0 8 -4 11 -10z m-1222 -6 c9 -9 -4 -35 -14 -28 -5 3 -9 12 -9 20
0 14 12 19 23 8z m705 -15 c-2 -6 -8 -10 -13 -10 -5 0 -11 4 -13 10 -2 6 4 11
13 11 9 0 15 -5 13 -11z m-2094 -23 c16 -13 25 -29 22 -35 -16 -25 -59 -3 -71
37 -8 29 11 28 49 -2z m2246 -6 c0 -10 -5 -20 -12 -22 -7 -3 -5 -13 7 -31 10
-15 15 -30 12 -33 -7 -8 -37 3 -61 21 -19 14 -19 15 -1 35 16 18 16 20 2 20
-10 0 -17 8 -17 18 0 15 6 17 35 14 26 -3 35 -9 35 -22z m-1880 -32 c0 -5 -11
-1 -24 9 -13 10 -22 22 -19 26 6 9 43 -21 43 -35z m-2280 11 c0 -5 -7 -9 -15
-9 -15 0 -20 12 -9 23 8 8 24 -1 24 -14z m2390 1 c0 -5 -4 -10 -10 -10 -5 0
-10 5 -10 10 0 6 5 10 10 10 6 0 10 -4 10 -10z m105 1 c7 -12 -12 -24 -25 -16
-11 7 -4 25 10 25 5 0 11 -4 15 -9z m1511 -46 c9 -14 13 -32 9 -45 -6 -18 -4
-19 20 -10 19 7 39 7 64 0 49 -14 61 -13 61 5 0 8 9 15 20 15 11 0 20 -7 20
-15 0 -8 8 -15 18 -15 11 0 13 -3 6 -8 -7 -4 -14 -16 -17 -27 -5 -19 -5 -19
-12 3 -5 16 -12 21 -24 16 -28 -12 -103 -24 -112 -18 -5 3 -9 12 -9 20 0 8 -4
13 -10 9 -5 -3 -7 -12 -4 -20 6 -15 -51 -75 -71 -75 -13 0 -49 40 -58 62 -5
13 2 22 24 34 24 12 28 18 19 29 -9 10 -7 20 5 39 21 32 30 32 51 1z m1424 4
c0 -5 -7 -9 -15 -9 -9 0 -12 6 -9 15 6 15 24 11 24 -6z m-3504 -24 c-5 -15
-66 -22 -66 -7 1 11 64 38 68 29 2 -4 1 -14 -2 -22z m1894 25 c0 -5 -4 -10
-10 -10 -5 0 -10 5 -10 10 0 6 5 10 10 10 6 0 10 -4 10 -10z m-1781 -29 c35
-33 38 -41 15 -41 -18 0 -53 38 -54 58 0 17 4 16 39 -17z m3081 20 c0 -5 -7
-14 -15 -21 -16 -14 -18 -10 -9 14 6 17 24 22 24 7z m-1200 -9 c0 -13 -12 -22
-22 -16 -10 6 -1 24 13 24 5 0 9 -4 9 -8z m-1570 -44 c0 -11 57 -10 79 2 14 7
23 5 35 -9 11 -13 14 -21 7 -26 -16 -10 -13 -45 4 -45 8 0 15 -9 15 -20 0 -12
-7 -20 -17 -20 -14 0 -15 -2 -4 -9 7 -5 21 -6 31 -4 21 6 37 -14 22 -29 -7 -7
0 -19 21 -39 l32 -28 -27 -1 c-27 0 -50 17 -68 51 -6 10 -16 19 -23 19 -7 0
-19 10 -27 22 -8 11 -22 28 -32 36 -9 8 -14 21 -11 28 6 16 2 17 -21 8 -9 -3
-16 -14 -16 -23 0 -9 -9 -24 -20 -33 -11 -10 -22 -30 -26 -45 -13 -62 -21 -66
-53 -34 -14 14 -21 16 -25 8 -4 -7 -4 0 -1 15 5 24 -1 32 -50 64 -30 20 -55
40 -55 44 0 12 -39 19 -46 9 -8 -14 -34 -11 -34 5 0 7 13 19 29 26 28 11 33
10 63 -19 18 -17 41 -31 51 -31 10 0 22 -11 27 -25 7 -19 17 -25 38 -25 45 0
66 22 69 73 3 38 0 47 -17 52 -26 8 -26 25 0 25 11 0 20 6 20 13 1 13 30 -21
30 -35z m734 11 c-3 -5 -10 -7 -15 -3 -5 3 -7 10 -3 15 3 5 10 7 15 3 5 -3 7
-10 3 -15z m1176 11 c0 -5 -2 -10 -4 -10 -3 0 -8 5 -11 10 -3 6 -1 10 4 10 6
0 11 -4 11 -10z m-1312 -16 c18 -5 23 -13 20 -33 -1 -14 2 -32 6 -40 7 -11 3
-13 -22 -8 -23 5 -33 2 -44 -13 -9 -15 -17 -17 -28 -10 -13 8 -11 11 7 16 31
8 21 20 -23 28 -40 8 -41 26 -1 40 20 7 31 6 45 -7 23 -21 42 -22 42 -2 0 8
-9 15 -20 15 -11 0 -20 5 -20 10 0 12 6 12 38 4z m896 -37 c-9 -23 -17 -21
-30 8 -9 18 -9 25 0 28 17 7 38 -17 30 -36z m1586 23 c0 -5 -7 -10 -16 -10 -8
0 -12 5 -9 10 3 6 10 10 16 10 5 0 9 -4 9 -10z m-172 -18 c2 -7 -3 -12 -12
-12 -9 0 -16 7 -16 16 0 17 22 14 28 -4z m-1559 -21 c-15 -5 -22 6 -14 19 6 9
10 9 16 -1 5 -8 4 -15 -2 -18z m1619 11 c6 -18 -15 -14 -22 4 -4 10 -1 14 6
12 6 -2 14 -10 16 -16z m-898 -11 c0 -11 5 -23 11 -27 8 -4 8 -9 0 -17 -16
-16 -14 -42 4 -57 8 -7 15 -21 15 -31 0 -11 5 -19 10 -19 6 0 16 -12 23 -27 6
-16 17 -32 23 -38 21 -18 26 -62 8 -69 -24 -9 -37 4 -31 33 4 20 0 30 -14 39
-10 7 -19 19 -19 27 0 8 -9 24 -21 36 -12 12 -18 27 -14 38 4 12 -1 21 -12 25
-10 3 -23 9 -30 12 -8 3 -11 -4 -10 -22 3 -39 -29 -45 -43 -8 -8 21 -7 31 5
44 8 9 15 20 15 23 0 4 10 18 22 32 26 30 58 33 58 6z m-3710 -1 c0 -5 -4 -10
-10 -10 -5 0 -10 5 -10 10 0 6 5 10 10 10 6 0 10 -4 10 -10z m-50 -10 c0 -5
-4 -10 -10 -10 -5 0 -10 5 -10 10 0 6 5 10 10 10 6 0 10 -4 10 -10z m450 -32
c0 -5 -7 -11 -15 -14 -8 -4 -15 -15 -15 -26 0 -15 -3 -18 -12 -10 -7 5 -24 12
-38 15 l-25 4 27 2 c21 1 29 9 40 37 11 32 14 33 25 18 7 -10 13 -22 13 -26z
m1620 20 c0 -6 -7 -7 -16 -4 -9 3 -18 6 -20 6 -3 0 -3 4 1 10 7 11 35 2 35
-12z m-2133 -20 c-3 -8 -6 -5 -6 6 -1 11 2 17 5 13 3 -3 4 -12 1 -19z m390 5
c-9 -9 -19 -14 -23 -11 -10 10 6 28 24 28 15 0 15 -1 -1 -17z m1809 2 c24 -12
26 -15 8 -15 -11 0 -29 7 -40 15 -25 19 -4 19 32 0z m-1756 -5 c0 -5 -4 -10
-10 -10 -5 0 -10 5 -10 10 0 6 5 10 10 10 6 0 10 -4 10 -10z m2744 -13 c-2
-13 1 -15 10 -7 16 13 26 3 26 -26 0 -14 -8 -25 -20 -29 -11 -4 -31 -17 -44
-30 -21 -21 -27 -23 -50 -12 -33 15 -33 27 -1 27 33 0 32 16 -2 28 l-28 10 29
11 c17 7 26 16 23 25 -8 20 3 27 33 24 17 -2 25 -9 24 -21z m120 -12 c0 -23
-6 -30 -26 -36 -34 -9 -42 0 -21 23 9 10 13 18 8 18 -4 0 -2 7 5 15 19 22 34
13 34 -20z m-3594 -49 c0 -8 7 -16 15 -20 8 -3 15 -13 15 -23 0 -10 14 -31 30
-46 32 -31 34 -35 22 -55 -11 -16 -82 -29 -82 -14 0 5 -12 13 -27 17 -39 9
-53 23 -53 51 0 18 6 24 23 25 16 1 18 2 5 6 -21 5 -23 24 -6 41 9 9 9 12 0
12 -7 0 -12 5 -12 10 0 6 16 10 35 10 23 0 35 -5 35 -14z m1857 -2 c-3 -3 -12
-4 -19 -1 -8 3 -5 6 6 6 11 1 17 -2 13 -5z m-2457 -48 c-13 -13 -35 7 -25 24
5 8 11 8 21 -1 10 -8 12 -15 4 -23z m3915 14 c3 -5 1 -10 -4 -10 -6 0 -11 5
-11 10 0 6 2 10 4 10 3 0 8 -4 11 -10z m1307 -76 c-7 -14 -12 -35 -13 -47 0
-12 -3 -16 -6 -9 -2 6 -11 12 -19 12 -19 0 -18 13 9 64 19 39 23 42 31 25 6
-12 5 -28 -2 -45z m-526 39 c21 -28 16 -33 -15 -15 -16 9 -27 20 -25 24 8 13
26 9 40 -9z m-946 3 c0 -11 -19 -15 -25 -6 -3 5 1 10 9 10 9 0 16 -2 16 -4z
m487 -15 c4 -16 8 -18 22 -9 13 8 24 7 44 -7 15 -9 27 -21 27 -26 0 -12 -77
-11 -85 1 -3 6 -17 10 -30 10 -13 0 -27 -4 -30 -10 -13 -21 -35 -10 -35 18 0
37 6 42 48 42 25 0 35 -5 39 -19z m-1597 -6 c7 -9 11 -18 8 -20 -6 -6 -58 18
-58 28 0 13 37 7 50 -8z m60 -25 c-11 -21 -31 -23 -37 -4 -3 8 37 33 45 28 2
-1 -2 -12 -8 -24z m1420 20 c0 -5 -4 -10 -10 -10 -5 0 -10 5 -10 10 0 6 5 10
10 10 6 0 10 -4 10 -10z m-1635 -20 c3 -5 -1 -10 -10 -10 -9 0 -13 5 -10 10 3
6 8 10 10 10 2 0 7 -4 10 -10z m1635 -16 c0 -8 -5 -12 -10 -9 -6 4 -8 11 -5
16 9 14 15 11 15 -7z m277 -20 c-9 -9 -28 6 -21 18 4 6 10 6 17 -1 6 -6 8 -13
4 -17z m1005 -39 c-8 -30 -32 -47 -32 -22 0 7 3 17 8 21 7 8 8 12 11 44 1 15
3 15 11 1 5 -9 6 -29 2 -44z m-2836 14 l29 -31 -28 13 c-24 11 -30 11 -38 -2
-6 -10 -9 -5 -9 19 0 40 8 40 46 1z m394 -14 c10 -12 9 -16 -5 -21 -19 -8 -40
9 -31 25 10 15 21 14 36 -4z m2203 -21 c-1 -10 4 -22 10 -26 7 -4 12 -12 12
-18 0 -5 3 -10 8 -10 4 0 21 -7 37 -15 20 -11 50 -14 91 -12 33 2 62 0 64 -4
3 -3 18 -9 35 -13 34 -6 32 -26 -1 -26 -15 0 -19 -5 -15 -18 7 -21 -18 -48
-49 -54 -15 -2 -20 3 -22 22 0 14 -1 31 -2 39 -1 11 -5 11 -19 -2 -24 -22 -32
-21 -32 2 0 20 -32 39 -38 22 -12 -37 -42 -56 -92 -58 -28 -1 -62 -9 -75 -17
-33 -22 -35 -21 -24 20 7 25 7 39 -1 49 -7 8 -9 19 -5 25 3 5 1 11 -4 11 -6 1
-14 3 -18 4 -5 2 -18 6 -30 10 -13 4 -23 15 -23 26 0 17 5 19 55 13 62 -8 100
6 111 38 7 24 30 17 27 -8z m477 1 c12 -22 11 -27 -13 -49 -15 -14 -27 -30
-27 -36 0 -5 -4 -10 -10 -10 -12 0 -14 33 -2 44 4 4 7 15 8 24 3 45 5 52 17
52 8 0 20 -11 27 -25z m-440 -11 c0 -8 -4 -12 -10 -9 -5 3 -10 10 -10 16 0 5
5 9 10 9 6 0 10 -7 10 -16z m-304 -32 c1 -13 6 -28 13 -35 14 -14 15 -30 1
-22 -5 3 -10 1 -10 -4 0 -6 10 -10 22 -8 18 2 23 -5 30 -40 6 -26 17 -47 29
-53 19 -11 28 -70 10 -70 -10 0 -71 96 -71 112 0 6 -16 27 -36 46 -43 41 -61
81 -42 94 24 15 53 4 54 -20z m54 -11 c0 -16 -14 -20 -27 -10 -19 17 -16 28 7
22 11 -3 20 -9 20 -12z m585 -1 c-3 -5 -13 -10 -21 -10 -8 0 -12 5 -9 10 3 6
13 10 21 10 8 0 12 -4 9 -10z m-1415 -10 c0 -5 -4 -10 -10 -10 -5 0 -10 5 -10
10 0 6 5 10 10 10 6 0 10 -4 10 -10z m1408 -57 c-2 -10 -13 -19 -26 -21 -17
-3 -22 2 -22 17 0 16 6 21 26 21 19 0 25 -5 22 -17z m96 -2 c30 -12 25 -48
-10 -61 -22 -9 -27 -24 -37 -100 -1 -8 -9 -15 -17 -15 -8 0 -15 -6 -15 -14 0
-8 -5 -16 -11 -18 -7 -2 -10 26 -10 82 0 47 4 85 8 85 5 0 8 8 8 18 0 10 3 22
7 25 9 10 48 9 77 -2z m95 -27 c3 -2 0 -9 -6 -15 -16 -16 -47 -7 -51 15 -3 16
0 18 24 12 16 -4 31 -10 33 -12z m-4739 -38 c0 -13 -7 -27 -16 -30 -23 -9 -28
-2 -20 29 8 32 36 33 36 1z m2180 -18 c0 -20 -1 -21 -20 -3 -11 10 -20 24 -20
32 0 11 4 11 20 3 11 -6 20 -20 20 -32z m-2480 -18 c0 -21 -15 -27 -25 -10 -7
12 2 30 16 30 5 0 9 -9 9 -20z m4685 -80 c-4 -33 -3 -60 2 -59 21 4 33 -2 33
-17 0 -13 7 -15 40 -9 31 5 40 4 40 -7 0 -21 -21 -38 -47 -38 -20 0 -23 -5
-23 -35 0 -19 -5 -35 -10 -35 -6 0 -8 11 -4 25 4 18 2 25 -9 25 -8 0 -18 -8
-22 -17 -6 -16 -8 -16 -25 5 -10 12 -25 20 -33 16 -10 -3 -17 4 -21 22 -10 37
8 51 28 23 16 -23 16 -23 16 -2 0 12 -4 25 -10 28 -13 8 -5 102 10 120 7 8 19
15 27 15 11 0 13 -12 8 -60z m-4693 27 c14 -12 29 -32 33 -44 6 -22 4 -23 -42
-17 -75 9 -79 12 -55 35 12 11 22 26 22 34 0 21 11 19 42 -8z m2533 3 c4 -6
-5 -10 -19 -10 -14 0 -26 5 -26 10 0 6 9 10 19 10 11 0 23 -4 26 -10z m414 -3
c8 -10 7 -17 -1 -25 -18 -18 -41 -15 -34 4 3 9 6 20 6 25 0 13 16 11 29 -4z
m1881 -12 c0 -12 -24 -55 -32 -55 -11 0 -10 17 2 41 9 17 30 27 30 14z m-3830
-46 c0 -17 -4 -28 -10 -24 -5 3 -10 17 -10 31 0 13 5 24 10 24 6 0 10 -14 10
-31z m1439 -8 c-15 -5 -22 6 -14 19 6 9 10 9 16 -1 5 -8 4 -15 -2 -18z m101
19 c0 -5 -4 -10 -10 -10 -5 0 -10 5 -10 10 0 6 5 10 10 10 6 0 10 -4 10 -10z
m-340 -30 c0 -5 -4 -10 -10 -10 -5 0 -10 5 -10 10 0 6 5 10 10 10 6 0 10 -4
10 -10z m2400 -6 c0 -8 -5 -12 -10 -9 -6 4 -8 11 -5 16 9 14 15 11 15 -7z
m-1001 -25 c11 -18 11 -23 -1 -30 -20 -13 -26 -11 -33 11 -12 39 12 53 34 19z
m810 -5 c2 -10 9 -23 17 -27 20 -12 17 -27 -5 -27 -11 0 -21 -8 -23 -17 -3
-16 -6 -15 -16 5 -11 18 -10 22 3 22 17 0 21 25 5 35 -14 9 -12 37 3 33 6 -3
14 -13 16 -24z m-1589 7 c0 -6 -4 -13 -10 -16 -5 -3 -10 1 -10 9 0 9 5 16 10
16 6 0 10 -4 10 -9z m2120 -14 c0 -14 -9 -29 -22 -36 -13 -7 -43 -40 -68 -74
-34 -47 -44 -69 -42 -92 2 -16 8 -34 13 -40 15 -15 10 -25 -11 -25 -15 0 -20
-7 -20 -26 0 -27 -25 -30 -25 -3 0 8 -4 19 -7 25 -4 6 -5 23 -2 37 2 15 0 27
-6 27 -5 0 -10 10 -10 22 0 12 -7 30 -17 40 -14 16 -15 18 0 18 9 0 19 -4 22
-10 15 -24 52 -7 95 44 55 66 58 75 26 73 -43 -3 -33 18 11 24 24 3 46 8 49
12 12 11 14 8 14 -16z m-2255 -22 c0 -30 -39 -27 -43 3 -3 20 0 23 20 20 15
-2 23 -10 23 -23z m-1680 -15 c-5 -15 2 -23 32 -35 21 -9 50 -15 66 -12 15 2
27 0 27 -5 0 -4 -10 -9 -22 -9 -70 -5 -105 -3 -125 5 -19 8 -21 12 -11 30 7
12 13 26 14 31 3 24 5 26 14 20 6 -4 8 -15 5 -25z m2255 15 c0 -8 -7 -15 -15
-15 -9 0 -12 6 -9 15 4 8 10 15 15 15 5 0 9 -7 9 -15z m1330 -1 c0 -8 -4 -12
-10 -9 -5 3 -10 10 -10 16 0 5 5 9 10 9 6 0 10 -7 10 -16z m-1966 -26 c-3 -5
-1 -8 5 -8 6 0 15 -8 20 -18 7 -14 5 -21 -9 -30 -16 -10 -21 -6 -39 29 -27 51
-26 60 3 46 13 -7 22 -15 20 -19z m1070 -23 c-4 -8 -8 -15 -10 -15 -2 0 -4 7
-4 15 0 8 4 15 10 15 5 0 7 -7 4 -15z m776 -4 c12 -23 13 -61 3 -61 -11 1 -43
67 -36 74 11 11 22 6 33 -13z m-3540 -11 c8 -2 -16 -6 -55 -10 -70 -6 -98 -4
-91 9 4 6 119 7 146 1z m280 0 c0 -5 -7 -10 -15 -10 -8 0 -15 5 -15 10 0 6 7
10 15 10 8 0 15 -4 15 -10z m1966 -1 c3 -6 1 -16 -5 -22 -9 -9 -14 -8 -21 3
-9 15 -4 30 10 30 5 0 12 -5 16 -11z m-1896 -3 c0 -3 -4 -8 -10 -11 -5 -3 -10
-1 -10 4 0 6 5 11 10 11 6 0 10 -2 10 -4z m784 -13 c4 -9 2 -21 -4 -27 -7 -7
-10 -5 -10 7 0 12 -8 17 -31 17 -17 0 -28 4 -24 10 10 17 62 12 69 -7z m660 0
c7 -17 -9 -33 -31 -33 -7 0 -13 5 -13 11 0 6 7 8 16 5 12 -4 14 -1 9 14 -8 24
10 27 19 3z m1806 2 c0 -8 -4 -15 -9 -15 -13 0 -22 16 -14 24 11 11 23 6 23
-9z m-734 -7 c9 -14 16 -68 9 -68 -2 0 -15 10 -29 23 -18 17 -22 27 -15 40 12
20 25 22 35 5z m454 2 c0 -5 -6 -10 -14 -10 -13 0 -21 -24 -30 -90 -7 -45 -42
-110 -53 -99 -7 7 -12 5 -16 -6 -5 -11 2 -19 21 -27 15 -6 32 -11 37 -10 6 1
11 -16 12 -38 2 -34 -1 -40 -17 -40 -10 0 -22 -4 -25 -10 -3 -5 -16 -10 -29
-10 -15 0 -35 -16 -62 -50 -21 -27 -42 -49 -46 -50 -19 -1 -5 51 32 120 22 41
40 82 40 91 0 9 9 24 20 34 11 10 20 26 20 36 0 10 5 21 10 24 6 4 8 11 5 16
-4 5 5 24 19 42 15 19 26 40 26 48 0 8 5 20 12 27 15 15 38 16 38 2z m186 -4
c3 -8 4 -23 2 -32 -3 -17 -4 -17 -20 0 -10 10 -18 24 -18 32 0 18 29 18 36 0z
m142 -10 c2 -10 -6 -24 -17 -32 -29 -21 -27 -36 3 -24 23 8 24 7 29 -58 3 -49
1 -70 -9 -78 -8 -6 -14 -19 -14 -28 0 -9 -5 -16 -10 -16 -16 0 -26 33 -12 38
11 3 18 52 8 52 -2 0 -12 3 -21 7 -14 5 -16 2 -10 -18 7 -24 7 -24 -12 -4 -28
30 -63 82 -63 94 0 24 27 9 43 -25 10 -19 21 -33 26 -29 5 3 -1 25 -15 50
l-23 45 24 0 c14 0 25 4 25 10 0 5 6 7 14 4 11 -4 13 0 9 17 -4 16 -2 20 8 17
8 -3 16 -13 17 -22z m-5548 -1 c0 -16 -27 -32 -37 -21 -7 7 16 36 28 36 5 0 9
-7 9 -15z m1560 -21 c0 -17 -22 -14 -28 4 -2 7 3 12 12 12 9 0 16 -7 16 -16z
m490 -5 c0 -5 -4 -9 -10 -9 -5 0 -10 7 -10 16 0 8 5 12 10 9 6 -3 10 -10 10
-16z m1590 6 c0 -8 -7 -15 -15 -15 -8 0 -15 7 -15 15 0 8 7 15 15 15 8 0 15
-7 15 -15z m-1959 -15 c-27 -24 -41 -25 -41 -6 0 16 15 24 45 25 19 0 18 -1
-4 -19z m2069 0 c0 -5 7 -10 15 -10 8 0 15 -4 15 -9 0 -5 11 -23 25 -39 25
-30 25 -45 -1 -35 -8 3 -11 9 -8 14 3 5 -1 9 -8 9 -8 0 -19 14 -25 30 -8 20
-18 30 -32 30 -12 0 -21 5 -21 10 0 6 9 10 20 10 11 0 20 -4 20 -10z m1090 0
c0 -5 -7 -10 -15 -10 -8 0 -15 5 -15 10 0 6 7 10 15 10 8 0 15 -4 15 -10z
m-3140 -40 c0 -11 -7 -20 -15 -20 -15 0 -21 21 -8 33 12 13 23 7 23 -13z m800
10 c0 -5 -4 -10 -9 -10 -6 0 -13 5 -16 10 -3 6 1 10 9 10 9 0 16 -4 16 -10z
m911 -3 c-1 -12 -15 -9 -19 4 -3 6 1 10 8 8 6 -3 11 -8 11 -12z m-1781 -7 c0
-5 -4 -10 -10 -10 -5 0 -10 5 -10 10 0 6 5 10 10 10 6 0 10 -4 10 -10z m3280
-10 c0 -5 -2 -10 -4 -10 -3 0 -8 5 -11 10 -3 6 -1 10 4 10 6 0 11 -4 11 -10z
m-1360 -49 c-15 -28 -12 -51 5 -51 18 0 20 -17 3 -23 -46 -15 -72 32 -36 68
29 28 42 31 28 6z m-2170 -11 c0 -5 -4 -10 -10 -10 -5 0 -10 5 -10 10 0 6 5
10 10 10 6 0 10 -4 10 -10z m2608 -2 c-2 -6 -10 -14 -16 -16 -7 -2 -10 2 -6
12 7 18 28 22 22 4z m-408 -8 c0 -5 -7 -10 -15 -10 -8 0 -15 5 -15 10 0 6 7
10 15 10 8 0 15 -4 15 -10z m-1891 -12 c0 -7 -4 -22 -9 -33 -7 -17 -9 -15 -9
13 -1 17 4 32 9 32 6 0 10 -6 9 -12z m2186 1 c11 -17 -1 -21 -15 -4 -8 9 -8
15 -2 15 6 0 14 -5 17 -11z m1165 -9 c12 -23 5 -26 -16 -6 -16 17 -18 26 -4
26 5 0 14 -9 20 -20z m-890 0 c0 -5 -4 -10 -10 -10 -5 0 -10 5 -10 10 0 6 5
10 10 10 6 0 10 -4 10 -10z m44 -46 c8 -31 -3 -47 -23 -34 -12 7 -12 11 -2 23
9 12 9 16 0 19 -7 2 -9 10 -5 16 10 17 23 7 30 -24z m-2759 16 c-3 -5 -10 -10
-16 -10 -5 0 -9 5 -9 10 0 6 7 10 16 10 8 0 12 -4 9 -10z m1805 1 c0 -21 -13
-41 -27 -41 -10 0 -13 6 -9 16 3 9 6 20 6 25 0 5 7 9 15 9 8 0 15 -4 15 -9z
m2360 -53 c0 -10 -4 -18 -8 -18 -16 0 -32 24 -32 49 0 23 1 24 20 6 11 -10 20
-26 20 -37z m-3050 38 c0 -2 -7 -6 -15 -10 -8 -3 -15 -1 -15 4 0 6 7 10 15 10
8 0 15 -2 15 -4z m1355 -6 c-3 -5 -10 -10 -16 -10 -5 0 -9 5 -9 10 0 6 7 10
16 10 8 0 12 -4 9 -10z m227 -5 c0 -5 -5 -11 -11 -13 -6 -2 -11 4 -11 13 0 9
5 15 11 13 6 -2 11 -8 11 -13z m1609 -15 c10 0 19 -5 19 -11 0 -20 -45 -5 -47
16 -2 11 0 14 3 8 3 -7 14 -13 25 -13z m-4051 0 c0 -5 -4 -10 -10 -10 -5 0
-10 5 -10 10 0 6 5 10 10 10 6 0 10 -4 10 -10z m2270 -21 c0 -5 -4 -9 -10 -9
-5 0 -10 7 -10 16 0 8 5 12 10 9 6 -3 10 -10 10 -16z m-2117 -14 c-7 -21 -13
-19 -13 6 0 11 4 18 10 14 5 -3 7 -12 3 -20z m717 10 c0 -8 -7 -15 -15 -15 -8
0 -15 7 -15 15 0 8 7 15 15 15 8 0 15 -7 15 -15z m900 5 c0 -5 -4 -10 -10 -10
-5 0 -10 5 -10 10 0 6 5 10 10 10 6 0 10 -4 10 -10z m-1714 -55 c-13 -26 -14
-26 -18 -3 -2 13 -2 31 0 40 3 16 5 16 18 4 12 -12 12 -18 0 -41z m2394 35 c0
-5 -4 -10 -9 -10 -6 0 -13 5 -16 10 -3 6 1 10 9 10 9 0 16 -4 16 -10z m-120
-48 c0 -8 6 -12 15 -9 8 4 17 2 20 -2 3 -5 14 -7 25 -4 14 4 20 0 20 -11 0 -9
-7 -16 -15 -16 -8 0 -15 -7 -15 -15 0 -32 -31 -13 -60 38 -35 61 -38 77 -10
52 11 -10 20 -25 20 -33z m1218 30 c6 -18 -15 -14 -22 4 -4 10 -1 14 6 12 6
-2 14 -10 16 -16z m-2688 -2 c0 -5 -2 -10 -4 -10 -3 0 -8 5 -11 10 -3 6 -1 10
4 10 6 0 11 -4 11 -10z m500 6 c0 -2 -7 -9 -15 -16 -12 -10 -15 -10 -15 4 0 9
7 16 15 16 8 0 15 -2 15 -4z m2570 -6 c0 -5 7 -10 16 -10 21 0 14 -34 -9 -38
-12 -3 -17 3 -17 22 0 15 -7 26 -17 29 -14 4 -12 5 5 6 12 0 22 -3 22 -9z
m-3925 -30 c3 -5 -3 -28 -15 -52 -11 -23 -20 -52 -20 -65 0 -14 -4 -22 -9 -18
-12 7 -2 115 12 133 11 14 24 16 32 2z m2515 -29 c0 -10 -24 -21 -43 -21 -7 0
-3 7 7 15 22 17 36 19 36 6z m-1200 -26 c0 -18 -5 -25 -20 -25 -20 0 -28 28
-13 43 15 16 33 6 33 -18z m-1130 -6 c0 -5 -4 -9 -10 -9 -5 0 -10 7 -10 16 0
8 5 12 10 9 6 -3 10 -10 10 -16z m710 17 c0 -11 -19 -15 -25 -6 -3 5 1 10 9
10 9 0 16 -2 16 -4z m1607 -32 c-3 -3 -12 -4 -19 -1 -8 3 -5 6 6 6 11 1 17 -2
13 -5z m-339 -32 c2 -15 -2 -22 -12 -22 -11 0 -16 9 -16 26 0 31 23 28 28 -4z
m342 -2 c0 -5 -4 -10 -9 -10 -6 0 -13 5 -16 10 -3 6 1 10 9 10 9 0 16 -4 16
-10z m32 -12 c-7 -7 -12 -8 -12 -2 0 14 12 26 19 19 2 -3 -1 -11 -7 -17z
m-2982 -9 c0 -20 -30 -41 -48 -34 -12 5 -13 9 -4 12 6 3 12 11 12 18 0 14 20
25 33 18 4 -2 7 -9 7 -14z m1180 7 c0 -7 -7 -19 -15 -26 -12 -10 -15 -9 -15 7
0 11 3 23 7 26 11 12 23 8 23 -7z m-925 -6 c-3 -5 -10 -10 -16 -10 -5 0 -9 5
-9 10 0 6 7 10 16 10 8 0 12 -4 9 -10z m3489 -15 c-4 -15 -2 -25 4 -25 7 0 5
-11 -4 -27 -7 -16 -14 -32 -14 -38 -1 -15 -37 -55 -50 -55 -8 0 -11 -11 -8
-29 3 -19 -1 -32 -13 -39 -26 -17 -43 -132 -19 -140 17 -6 11 -20 -26 -57 -25
-25 -34 -41 -29 -53 19 -45 18 -52 -8 -52 -16 0 -31 -8 -37 -20 -8 -14 -17
-19 -30 -15 -16 5 -19 1 -17 -22 2 -23 -2 -28 -20 -28 -12 0 -25 -4 -29 -8
-16 -16 -35 -7 -29 14 4 12 2 32 -5 45 -15 28 -7 56 15 48 18 -7 27 14 29 69
1 35 5 43 23 45 14 2 28 19 43 53 11 28 27 52 35 55 8 3 17 26 21 50 3 24 10
47 15 50 16 9 48 79 46 100 -1 13 3 18 14 16 12 -2 20 9 26 35 5 21 14 38 20
38 6 0 15 3 19 8 17 17 34 7 28 -18z m-666 -17 c-3 -30 -6 -33 -35 -32 -34 2
-47 -15 -15 -18 9 0 22 -2 29 -2 7 -1 18 -7 25 -14 6 -6 17 -12 23 -12 17 0
34 -36 28 -59 -3 -13 0 -23 10 -27 9 -3 13 -12 10 -21 -5 -12 -1 -14 18 -8 13
4 27 13 31 19 5 6 8 2 8 -11 0 -12 -7 -29 -16 -38 -16 -15 -16 -18 0 -33 10
-10 16 -12 16 -4 0 7 8 12 18 12 10 0 23 5 28 10 8 8 14 6 23 -4 9 -11 8 -17
-4 -29 -19 -20 -19 -27 0 -27 9 0 15 -9 15 -24 0 -21 5 -24 27 -23 25 2 27 -1
28 -40 1 -25 -3 -43 -9 -43 -19 1 -48 28 -42 39 4 5 2 12 -3 15 -5 4 -12 2
-16 -4 -9 -15 -27 -1 -21 16 4 11 2 12 -14 4 -12 -7 -21 -7 -25 0 -8 14 3 30
21 30 17 0 18 12 2 28 -15 15 -64 16 -73 2 -11 -17 -23 -11 -41 20 -17 27 -19
28 -35 14 -10 -9 -23 -13 -30 -8 -7 4 -3 -9 10 -29 19 -32 20 -38 7 -43 -25
-10 -67 27 -61 54 9 37 -5 70 -31 76 -29 8 -30 17 -4 41 15 13 17 22 9 36 -6
12 -6 25 0 37 7 12 4 24 -10 41 -13 15 -17 31 -13 45 9 30 10 30 36 12 30 -21
33 -20 46 9 16 36 34 31 30 -7z m92 -23 c0 -8 -7 -15 -15 -15 -8 0 -15 7 -15
15 0 8 7 15 15 15 8 0 15 -7 15 -15z m-4305 -5 c3 -5 1 -10 -4 -10 -6 0 -11 5
-11 10 0 6 2 10 4 10 3 0 8 -4 11 -10z m3025 -70 c0 -5 -5 -10 -11 -10 -5 0
-7 5 -4 10 3 6 8 10 11 10 2 0 4 -4 4 -10z m-1970 -49 c-6 -12 -17 -21 -25
-21 -20 0 -19 4 8 34 24 27 35 19 17 -13z m-69 -34 c-13 -13 -26 -3 -16 12 3
6 11 8 17 5 6 -4 6 -10 -1 -17z m559 9 c0 -18 -16 -29 -30 -21 -13 8 -1 35 16
35 8 0 14 -6 14 -14z m701 -19 c-16 -16 -26 0 -10 19 9 11 15 12 17 4 2 -6 -1
-17 -7 -23z m3639 23 c0 -5 -4 -10 -10 -10 -5 0 -10 5 -10 10 0 6 5 10 10 10
6 0 10 -4 10 -10z m-5613 -66 c-9 -9 -28 6 -21 18 4 6 10 6 17 -1 6 -6 8 -13
4 -17z m1083 17 c0 -14 -18 -23 -30 -16 -6 4 -8 11 -5 16 8 12 35 12 35 0z
m1500 -52 c0 -5 -11 -9 -25 -9 -28 0 -34 16 -7 23 20 4 32 -1 32 -14z m-1510
-4 c0 -8 -7 -15 -16 -15 -14 0 -14 3 -4 15 7 8 14 15 16 15 2 0 4 -7 4 -15z
m102 -7 c-9 -9 -15 -9 -24 0 -9 9 -7 12 12 12 19 0 21 -3 12 -12z m1088 -17
c0 -5 3 -16 6 -25 3 -9 2 -16 -4 -16 -5 0 -12 11 -14 25 -3 14 -1 25 3 25 5 0
9 -4 9 -9z m68 -3 c-3 -7 -11 -13 -18 -13 -7 0 -15 6 -17 13 -3 7 4 12 17 12
13 0 20 -5 18 -12z m-323 -37 c3 -5 1 -12 -5 -16 -5 -3 -10 1 -10 9 0 18 6 21
15 7z m2585 -11 c0 -5 13 -16 30 -25 17 -9 36 -31 44 -50 9 -21 22 -35 32 -35
10 0 14 -3 11 -7 -4 -3 -1 -13 5 -21 10 -12 8 -18 -11 -33 -13 -11 -32 -19
-42 -19 -10 0 -19 -3 -19 -8 0 -13 -39 -32 -55 -26 -11 5 -15 20 -14 63 1 32
-5 68 -14 84 -12 22 -12 34 -4 58 11 27 37 41 37 19z m690 -40 c0 -52 -15 -65
-40 -35 -9 11 -9 22 0 50 18 54 40 46 40 -15z m-3367 9 c-5 -19 -7 -19 -15 -5
-10 18 -2 39 12 31 4 -3 6 -15 3 -26z m1997 -3 c0 -3 -4 -8 -10 -11 -5 -3 -10
-1 -10 4 0 6 5 11 10 11 6 0 10 -2 10 -4z m604 -62 c0 -16 6 -34 14 -40 8 -6
13 -16 11 -22 -3 -7 -12 -5 -27 6 -34 26 -42 100 -9 89 6 -2 11 -17 11 -33z
m30 -9 c3 -8 1 -15 -4 -15 -6 0 -10 7 -10 15 0 8 2 15 4 15 2 0 6 -7 10 -15z
m-307 -29 c-5 -16 -37 -20 -50 -7 -9 9 -8 14 2 20 17 11 53 2 48 -13z m-272
-47 c-11 -17 -35 4 -35 30 l1 26 19 -24 c11 -12 18 -27 15 -32z m-2085 27 c0
-3 -4 -8 -10 -11 -5 -3 -10 -1 -10 4 0 6 5 11 10 11 6 0 10 -2 10 -4z m3635
-37 c0 -7 -8 -15 -17 -17 -18 -3 -25 18 -11 32 10 10 28 1 28 -15z m-3649 -5
c-3 -9 -6 -20 -6 -25 0 -5 -4 -9 -10 -9 -5 0 -10 11 -10 25 0 16 6 25 16 25
11 0 14 -5 10 -16z m2106 -36 c-9 -9 -12 -7 -12 12 0 19 3 21 12 12 9 -9 9
-15 0 -24z m583 2 c8 -13 -4 -50 -16 -50 -5 0 -9 14 -9 30 0 30 13 40 25 20z
m-310 -30 c-10 -11 -21 -18 -23 -15 -3 3 3 12 14 20 27 20 30 18 9 -5z m1191
-26 c-11 -8 -26 -14 -34 -14 -12 0 -12 3 -1 18 21 26 33 32 44 21 7 -7 4 -15
-9 -25z m-799 -8 c9 -4 21 -2 27 4 20 20 26 10 23 -39 -2 -29 -10 -55 -20 -65
-23 -24 -21 -53 5 -67 l21 -11 -24 -14 c-31 -17 -49 -18 -45 -1 17 53 16 67
-4 67 -11 0 -19 3 -18 8 1 4 -2 19 -6 33 -4 14 -8 34 -10 44 -2 10 -8 21 -15
23 -9 3 -11 -2 -7 -14 3 -11 1 -26 -4 -34 -9 -13 -11 -13 -20 0 -5 8 -10 22
-10 31 0 19 24 42 33 32 4 -3 7 -1 7 6 0 17 44 32 48 16 2 -7 10 -16 19 -19z
m583 -17 c0 -22 -12 -30 -29 -20 -9 6 -11 19 -6 42 7 31 8 32 21 14 8 -10 14
-27 14 -36z m-950 21 c0 -5 -5 -10 -11 -10 -5 0 -7 5 -4 10 3 6 8 10 11 10 2
0 4 -4 4 -10z m-150 -30 c0 -5 -2 -10 -4 -10 -3 0 -8 5 -11 10 -3 6 -1 10 4
10 6 0 11 -4 11 -10z m-112 -18 c3 -9 -2 -13 -14 -10 -9 1 -19 9 -22 16 -3 9
2 13 14 10 9 -1 19 -9 22 -16z m1192 -46 c0 -11 -19 -15 -25 -6 -3 5 1 10 9
10 9 0 16 -2 16 -4z m219 -10 c15 -18 -10 -46 -41 -46 -18 0 -19 -5 -16 -52 2
-29 8 -61 12 -70 6 -13 4 -18 -6 -18 -8 0 -21 17 -28 39 -9 27 -17 37 -29 35
-9 -2 -24 2 -34 10 -18 14 -18 15 0 35 9 12 23 21 30 21 7 0 13 5 13 11 0 17
43 48 66 49 12 0 27 -6 33 -14z m-1559 -6 c0 -5 -4 -10 -10 -10 -5 0 -10 5
-10 10 0 6 5 10 10 10 6 0 10 -4 10 -10z m1770 -15 c0 -8 7 -15 15 -15 8 0 15
-7 15 -15 0 -8 -7 -15 -15 -15 -8 0 -15 6 -15 14 0 8 -7 17 -16 20 -8 3 -12
10 -9 16 9 15 25 12 25 -5z m-5611 -119 c-41 -102 -45 -107 -81 -118 -59 -17
-59 -18 14 112 4 8 12 27 17 42 8 20 15 25 30 21 14 -4 23 1 27 13 9 25 26 46
31 40 3 -2 -15 -52 -38 -110z m1772 54 c-6 -26 -10 -31 -15 -18 -4 9 -2 26 4
38 16 30 20 22 11 -20z m2801 -2 c-6 -6 -16 -7 -23 -3 -9 6 -7 12 7 22 21 15
34 -1 16 -19z m-2062 -38 c0 -5 -4 -10 -9 -10 -5 0 -11 -9 -13 -19 -3 -18 -5
-18 -23 -5 -19 14 -19 15 3 20 12 4 22 10 22 15 0 5 5 9 10 9 6 0 10 -4 10
-10z m2732 -12 c-7 -7 -12 -20 -12 -30 0 -10 -7 -21 -15 -24 -8 -4 -15 -12
-15 -20 0 -8 -6 -14 -14 -14 -18 0 -32 -41 -35 -107 -1 -7 -8 -13 -17 -13 -11
0 -14 -6 -8 -22 6 -19 4 -21 -7 -12 -10 8 -21 7 -39 -2 -14 -8 -20 -14 -14
-14 7 0 14 -7 18 -15 4 -10 -1 -15 -14 -15 -12 0 -20 7 -20 16 0 9 -6 14 -12
11 -7 -2 -12 -10 -10 -16 3 -15 -16 -51 -28 -51 -5 0 -12 9 -15 20 -3 11 -13
20 -20 20 -9 0 -12 6 -9 15 4 8 -1 17 -10 21 -24 9 -19 24 9 24 14 0 25 -4 25
-10 0 -5 5 -10 10 -10 6 0 10 10 10 21 0 17 5 20 25 16 21 -4 28 1 39 27 7 17
23 40 35 50 11 11 21 24 21 30 0 16 46 63 69 71 10 3 21 15 24 25 3 11 13 20
23 20 14 0 15 -3 6 -12z m-547 -18 c3 -5 -1 -10 -10 -10 -9 0 -13 5 -10 10 3
6 8 10 10 10 2 0 7 -4 10 -10z m-2949 -55 c-4 -25 -11 -45 -17 -45 -12 0 -11
12 3 60 16 50 22 43 14 -15z m-86 35 c0 -5 -4 -10 -10 -10 -5 0 -10 5 -10 10
0 6 5 10 10 10 6 0 10 -4 10 -10z m2980 -9 c0 -5 -7 -11 -15 -15 -15 -5 -20 5
-8 17 9 10 23 9 23 -2z m-2220 -21 c0 -5 -7 -10 -15 -10 -8 0 -15 5 -15 10 0
6 7 10 15 10 8 0 15 -4 15 -10z m90 0 c0 -5 -5 -10 -11 -10 -5 0 -7 5 -4 10 3
6 8 10 11 10 2 0 4 -4 4 -10z m2848 -28 c2 -7 -3 -12 -12 -12 -9 0 -16 7 -16
16 0 17 22 14 28 -4z m-2850 -15 c13 -15 1 -75 -14 -67 -5 3 -8 10 -6 17 1 6
-2 14 -8 18 -15 9 -12 45 4 45 7 0 18 -6 24 -13z m1435 7 c8 -8 -3 -34 -14
-34 -5 0 -9 9 -9 20 0 19 11 26 23 14z m1615 -51 c2 -8 -5 -13 -17 -13 -21 0
-35 13 -24 24 10 10 36 3 41 -11z m-5629 -19 c-14 -18 -24 -11 -15 11 3 9 11
13 16 10 8 -5 7 -11 -1 -21z m1821 20 c0 -3 -5 -15 -12 -27 -6 -12 -12 -38
-13 -57 -2 -35 -42 -90 -65 -90 -12 0 -13 -4 4 50 22 70 55 130 71 130 8 0 15
-3 15 -6z m3147 -31 c-9 -9 -19 -14 -23 -11 -10 10 6 28 24 28 15 0 15 -1 -1
-17z m-838 -12 c13 -8 13 -12 1 -26 -8 -10 -16 -29 -18 -43 -4 -34 -63 -109
-111 -142 -11 -8 -21 -23 -21 -33 0 -13 -5 -17 -16 -13 -9 3 -19 6 -24 6 -4 0
-11 7 -14 15 -4 11 3 19 20 25 21 8 25 15 20 35 -5 19 -1 26 21 37 16 7 28 20
29 28 3 44 5 50 17 50 7 0 19 16 26 35 13 36 39 46 70 26z m285 -30 c3 -4 -1
-17 -9 -27 -11 -15 -16 -16 -26 -7 -10 10 -9 15 1 28 14 17 26 19 34 6z m546
5 c0 -3 -4 -8 -10 -11 -5 -3 -10 -1 -10 4 0 6 5 11 10 11 6 0 10 -2 10 -4z
m301 -22 c5 -15 7 -30 3 -33 -7 -7 -34 28 -34 46 0 23 20 14 31 -13z m354 5
c0 -7 -8 -15 -17 -17 -18 -3 -25 18 -11 32 10 10 28 1 28 -15z m-5702 -26 c4
-19 -1 -34 -14 -49 -29 -31 -25 -52 9 -47 24 4 25 3 10 -10 -9 -7 -18 -30 -20
-50 -1 -20 -6 -37 -10 -37 -4 0 -8 4 -8 8 0 4 -16 6 -35 4 -36 -4 -50 13 -20
24 9 4 13 13 10 24 -3 9 1 23 10 30 8 7 15 23 15 36 0 12 5 26 10 29 6 4 8 15
5 26 -4 10 -3 23 0 29 12 19 33 10 38 -17z m4552 7 c-3 -5 -13 -10 -21 -10 -8
0 -12 5 -9 10 3 6 13 10 21 10 8 0 12 -4 9 -10z m1002 -41 c3 -27 1 -30 -20
-24 -39 12 -44 25 -17 45 29 22 32 20 37 -21z m-5120 10 c2 -8 -2 -21 -7 -29
-9 -13 -12 -13 -24 3 -7 9 -21 17 -30 17 -27 0 -18 18 12 23 37 5 47 3 49 -14z
m3311 -21 c-6 -18 -28 -21 -28 -4 0 9 7 16 16 16 9 0 14 -5 12 -12z m1729 -9
c22 -8 24 -12 13 -19 -8 -6 -24 -10 -34 -10 -11 0 -27 -7 -37 -16 -10 -9 -23
-13 -28 -9 -17 10 -13 23 9 30 11 3 20 13 20 21 0 17 18 18 57 3z m-337 -25
c0 -8 -7 -14 -15 -14 -8 0 -15 -4 -15 -8 0 -9 -50 -35 -56 -30 -1 2 10 12 27
23 16 11 29 28 29 37 0 11 5 15 15 12 8 -4 15 -12 15 -20z m-865 -13 c-3 -6
-11 -11 -17 -11 -6 0 -6 6 2 15 14 17 26 13 15 -4z m1305 -1 c0 -5 -2 -10 -4
-10 -3 0 -8 5 -11 10 -3 6 -1 10 4 10 6 0 11 -4 11 -10z m-3753 -18 c-10 -11
-14 -26 -10 -40 3 -13 1 -22 -6 -22 -6 0 -11 7 -11 15 0 8 -5 15 -12 15 -6 0
-4 6 7 13 10 8 15 19 11 25 -5 8 1 12 15 12 21 0 21 -1 6 -18z m1959 -9 c-10
-10 -19 5 -10 18 6 11 8 11 12 0 2 -7 1 -15 -2 -18z m1231 -20 c-16 -16 -17
-16 -17 3 0 26 11 37 24 24 7 -7 5 -16 -7 -27z m673 -4 c0 -11 -4 -19 -9 -19
-10 0 -21 24 -21 47 0 13 3 13 15 3 8 -7 15 -21 15 -31z m-714 20 c4 -7 7 -26
8 -43 1 -32 7 -34 54 -20 16 5 22 2 22 -9 0 -8 -6 -17 -12 -20 -19 -6 17 -44
48 -51 27 -7 28 -23 2 -40 -13 -8 -25 0 -57 34 -23 24 -41 48 -41 53 0 5 -7 4
-15 -3 -12 -10 -16 -9 -21 6 -3 11 -9 26 -14 35 -9 18 -2 69 11 69 4 0 11 -5
15 -11z m-4536 -19 c0 -5 -2 -10 -4 -10 -3 0 -8 5 -11 10 -3 6 -1 10 4 10 6 0
11 -4 11 -10z m4310 0 c0 -5 -4 -10 -10 -10 -5 0 -10 5 -10 10 0 6 5 10 10 10
6 0 10 -4 10 -10z m158 -2 c-6 -18 -28 -21 -28 -4 0 9 7 16 16 16 9 0 14 -5
12 -12z m-2181 -22 c-3 -7 0 -19 6 -25 6 -6 12 -21 14 -33 2 -12 9 -26 16 -30
12 -7 20 -98 8 -98 -4 0 -12 21 -20 48 -7 26 -19 59 -27 74 -17 31 -19 78 -3
78 6 0 9 -6 6 -14z m1582 -33 c12 -41 9 -50 -11 -34 -7 7 -22 18 -33 26 l-20
14 20 15 c29 22 33 20 44 -21z m-3869 17 c0 -5 -4 -10 -10 -10 -5 0 -10 5 -10
10 0 6 5 10 10 10 6 0 10 -4 10 -10z m3670 -7 c0 -10 3 -28 6 -41 5 -17 3 -21
-9 -17 -8 4 -21 -1 -30 -9 -9 -9 -20 -16 -26 -16 -17 0 -13 30 4 36 8 4 15 14
15 23 0 18 18 41 32 41 4 0 8 -8 8 -17z m727 1 c2 -6 -3 -17 -12 -24 -12 -10
-18 -10 -30 0 -24 20 -18 39 12 37 14 -1 28 -7 30 -13z m-3444 -31 c-3 -7 -11
-13 -19 -13 -17 0 -17 5 -3 32 8 16 13 18 19 8 5 -7 6 -19 3 -27z m397 23 c0
-3 -4 -8 -10 -11 -5 -3 -10 -1 -10 4 0 6 5 11 10 11 6 0 10 -2 10 -4z m3624
-5 c5 -1 3 -8 -4 -16 -9 -11 -17 -12 -31 -4 -26 14 -24 30 4 25 12 -3 26 -5
31 -5z m286 -6 c0 -8 -4 -15 -10 -15 -5 0 -10 7 -10 15 0 8 5 15 10 15 6 0 10
-7 10 -15z m-5220 -13 c0 -10 -3 -22 -7 -25 -10 -11 -32 13 -26 29 8 20 33 17
33 -4z m3534 -9 c-9 -3 -8 -12 2 -32 12 -24 18 -27 54 -24 30 2 40 -1 40 -12
0 -8 -8 -15 -19 -15 -11 0 -25 -13 -35 -34 -9 -19 -23 -37 -32 -40 -9 -3 -14
-13 -11 -21 4 -9 1 -12 -7 -9 -29 11 -64 -73 -38 -92 27 -20 -48 -104 -94
-104 -11 0 -1 20 21 46 14 16 30 45 35 64 9 30 7 37 -11 53 -12 9 -30 17 -40
17 -10 0 -19 7 -19 15 0 8 9 15 20 15 11 0 20 5 20 10 0 6 9 10 20 10 13 0 25
12 36 38 14 30 18 33 22 17 2 -11 11 -29 19 -40 15 -20 15 -20 9 2 -4 12 -2
24 4 28 5 3 10 14 10 25 0 13 -5 17 -20 13 -18 -5 -20 -1 -17 34 5 52 15 69
31 53 8 -9 8 -14 0 -17z m-3619 -23 c0 -22 -29 -18 -33 3 -3 14 1 18 15 15 10
-2 18 -10 18 -18z m115 -16 c-8 -21 -6 -26 15 -34 26 -10 34 -35 13 -42 -8 -3
-4 -15 12 -38 23 -32 23 -33 5 -46 -27 -20 -41 -17 -60 12 -9 15 -12 24 -7 20
18 -11 23 11 6 25 -10 8 -13 21 -9 36 3 14 1 23 -6 23 -13 0 -4 47 13 67 16
20 28 5 18 -23z m3270 29 c0 -5 -5 -15 -10 -23 -8 -12 -10 -11 -10 8 0 12 5
22 10 22 6 0 10 -3 10 -7z m-1490 -7 c0 -3 -4 -8 -10 -11 -5 -3 -10 -1 -10 4
0 6 5 11 10 11 6 0 10 -2 10 -4z m2051 -33 c13 -36 4 -60 -16 -43 -8 7 -15 19
-15 26 0 8 -10 14 -22 14 -23 0 -23 1 2 14 36 20 39 19 51 -11z m1335 -11 c-9
-9 -37 8 -31 18 5 8 11 7 21 -1 8 -6 12 -14 10 -17z m-716 -13 c0 -23 -22 -49
-40 -49 -23 0 -27 29 -8 48 15 15 48 16 48 1z m518 -7 c2 -7 -3 -12 -12 -12
-9 0 -16 7 -16 16 0 17 22 14 28 -4z m-4670 -19 c2 -15 -4 -22 -22 -25 -34 -7
-38 0 -19 29 18 27 37 26 41 -4z m649 -16 c-14 -20 -27 -34 -29 -32 -3 3 -5
-19 -6 -47 -1 -36 4 -58 16 -71 15 -17 15 -20 -1 -50 -21 -39 -21 -121 1 -158
13 -24 13 -29 -7 -55 -14 -20 -21 -46 -22 -81 -2 -41 -5 -51 -15 -42 -7 5 -12
30 -12 55 0 25 -6 51 -12 59 -7 8 -9 22 -6 31 3 8 -1 25 -9 37 -10 14 -15 45
-15 88 0 58 -3 69 -22 82 -19 12 -21 19 -12 34 6 10 23 24 37 31 38 18 33 34
-8 31 -19 -2 -35 0 -35 4 -1 38 2 47 15 47 9 0 12 -6 9 -15 -10 -26 11 -17 46
20 19 19 41 35 50 35 9 0 25 9 35 20 28 31 29 17 2 -23z m-137 3 c0 -5 -4 -10
-10 -10 -5 0 -10 5 -10 10 0 6 5 10 10 10 6 0 10 -4 10 -10z m4150 -26 c-15
-17 -30 -9 -30 17 0 17 3 18 21 9 16 -9 18 -14 9 -26z m-1650 6 c0 -5 -5 -10
-11 -10 -5 0 -7 5 -4 10 3 6 8 10 11 10 2 0 4 -4 4 -10z m-1449 -13 c-1 -12
-15 -9 -19 4 -3 6 1 10 8 8 6 -3 11 -8 11 -12z m3070 -28 c11 -18 12 -59 1
-59 -5 0 -14 11 -20 25 -6 14 -18 25 -27 25 -8 0 -15 6 -15 14 0 19 48 15 61
-5z m-1718 -29 c-11 -9 -24 -26 -27 -38 -10 -30 -46 -30 -46 1 0 20 23 43 60
58 26 11 34 -3 13 -21z m1841 21 c3 -5 0 -11 -8 -14 -15 -6 -26 1 -26 15 0 11
27 10 34 -1z m-844 -9 c0 -13 -12 -22 -22 -16 -10 6 -1 24 13 24 5 0 9 -4 9
-8z m-4175 -84 c-9 -40 -9 -40 -28 -32 -24 9 -30 37 -11 51 32 24 46 16 39
-19z m3505 -18 c0 -13 -7 -20 -19 -20 -25 0 -38 20 -20 31 23 15 39 10 39 -11z
m800 -30 c0 -5 -4 -10 -10 -10 -5 0 -10 5 -10 10 0 6 5 10 10 10 6 0 10 -4 10
-10z m-980 -10 c0 -5 -4 -10 -10 -10 -5 0 -10 5 -10 10 0 6 5 10 10 10 6 0 10
-4 10 -10z m-3286 -25 c-4 -8 -10 -15 -15 -15 -5 0 -9 7 -9 15 0 8 7 15 15 15
9 0 12 -6 9 -15z m3823 -27 c-3 -7 -5 -2 -5 12 0 14 2 19 5 13 2 -7 2 -19 0
-25z m-507 -33 c0 -15 -26 -32 -36 -23 -2 3 -2 13 2 22 8 20 34 21 34 1z m559
-25 c26 0 34 -15 16 -30 -27 -22 -16 -47 18 -41 11 2 8 -17 -4 -25 -6 -3 -8
-16 -5 -28 4 -11 9 -40 12 -62 5 -40 4 -42 -27 -48 -25 -5 -38 -1 -64 22 -40
33 -42 38 -12 46 15 4 26 0 36 -14 7 -11 22 -20 32 -20 16 0 17 3 7 25 -6 14
-16 25 -21 25 -5 0 -4 7 3 15 10 13 9 15 -9 15 -11 0 -21 5 -21 10 0 6 5 10
10 10 12 0 3 69 -10 83 -4 4 -5 20 -2 34 5 26 5 26 13 5 5 -12 17 -22 28 -22z
m-3839 -5 c0 -8 -7 -15 -15 -15 -8 0 -15 7 -15 15 0 8 7 15 15 15 8 0 15 -7
15 -15z m3273 -25 c-3 -11 -9 -17 -14 -15 -10 7 -1 35 11 35 5 0 6 -9 3 -20z
m1671 -20 c-14 -14 -38 5 -30 26 6 16 8 16 23 1 11 -11 14 -20 7 -27z m-4509
14 c-9 -9 -18 -14 -21 -11 -9 9 6 27 22 27 13 0 13 -2 -1 -16z m-416 -20 c-17
-21 -31 -17 -19 6 6 11 15 18 21 14 6 -4 6 -11 -2 -20z m5091 10 c0 -9 -5 -14
-12 -12 -18 6 -21 28 -4 28 9 0 16 -7 16 -16z m-1190 2 c0 -3 -4 -8 -10 -11
-5 -3 -10 -1 -10 4 0 6 5 11 10 11 6 0 10 -2 10 -4z m-4351 -82 c-12 -23 -39
-33 -39 -15 0 5 10 25 23 44 19 29 22 31 25 14 2 -11 -2 -31 -9 -43z m1347 39
c-10 -10 -19 5 -10 18 6 11 8 11 12 0 2 -7 1 -15 -2 -18z m3064 14 c0 -7 -9
-18 -20 -25 -22 -14 -25 -9 -10 19 12 21 30 26 30 6z m-3930 -16 c0 -6 -4 -13
-10 -16 -5 -3 -10 -15 -10 -26 0 -17 -3 -18 -20 -7 -22 14 -27 44 -7 51 21 9
47 7 47 -2z m149 5 c-10 -8 -89 -13 -83 -5 3 5 24 9 46 9 23 0 39 -2 37 -4z
m4801 -15 c0 -15 -38 -56 -45 -49 -4 4 1 18 12 32 18 26 33 33 33 17z m-510
-16 c0 -8 -9 -15 -20 -15 -22 0 -27 15 -7 23 21 9 27 7 27 -8z m-1346 -36 c-3
-5 -10 -7 -15 -3 -5 3 -7 10 -3 15 3 5 10 7 15 3 5 -3 7 -10 3 -15z m550 5
c20 -19 21 -44 3 -44 -8 0 -21 8 -30 18 -13 14 -14 21 -5 30 15 15 13 15 32
-4z m566 -4 c0 -5 -4 -10 -10 -10 -5 0 -10 5 -10 10 0 6 5 10 10 10 6 0 10 -4
10 -10z m660 -22 c0 -13 -29 -48 -41 -48 -4 0 -3 14 2 30 11 29 39 42 39 18z
m-4870 -12 c0 -8 -4 -17 -9 -21 -12 -7 -24 12 -16 25 9 15 25 12 25 -4z m4440
-5 c0 -11 -4 -23 -10 -26 -5 -3 -10 -11 -10 -17 0 -6 6 -6 15 2 24 20 30 4 11
-25 -10 -15 -23 -24 -31 -21 -8 3 -17 1 -20 -4 -13 -21 -21 -8 -17 25 2 19 7
35 11 35 5 0 13 11 19 25 14 30 32 33 32 6z m510 -1 c0 -11 -4 -20 -10 -20 -5
0 -10 9 -10 20 0 11 5 20 10 20 6 0 10 -9 10 -20z m-1040 -22 c0 -7 -7 -21
-14 -31 -18 -23 -31 -5 -16 23 12 22 30 27 30 8z m868 -38 c-12 -35 -28 -49
-28 -24 0 15 26 54 36 54 2 0 -2 -14 -8 -30z m-4608 10 c0 -13 -28 -25 -38
-16 -3 4 0 11 8 16 20 13 30 12 30 0z m3440 -40 c0 -5 -4 -10 -9 -10 -5 0 -17
-3 -27 -7 -16 -6 -17 -5 -4 10 17 18 40 22 40 7z m-1180 -10 c0 -5 -5 -10 -11
-10 -5 0 -7 5 -4 10 3 6 8 10 11 10 2 0 4 -4 4 -10z"/>
<path d="M3995 5690 c-3 -5 -2 -10 4 -10 5 0 13 5 16 10 3 6 2 10 -4 10 -5 0
-13 -4 -16 -10z"/>
<path d="M4562 4759 c2 -7 10 -15 17 -17 8 -3 12 1 9 9 -2 7 -10 15 -17 17 -8
3 -12 -1 -9 -9z"/>
<path d="M4802 4390 c0 -19 2 -27 5 -17 2 9 2 25 0 35 -3 9 -5 1 -5 -18z"/>
<path d="M5668 4723 c7 -3 16 -2 19 1 4 3 -2 6 -13 5 -11 0 -14 -3 -6 -6z"/>
<path d="M5178 3758 c8 -8 9 -15 0 -25 -8 -10 -7 -18 6 -31 9 -10 16 -24 16
-31 0 -7 6 -11 13 -8 6 2 10 11 8 18 -7 27 -2 54 14 65 19 14 19 24 0 24 -8 0
-15 -4 -15 -10 0 -5 -7 -10 -15 -10 -8 0 -15 5 -15 10 0 6 -5 10 -12 10 -9 0
-9 -3 0 -12z"/>
<path d="M3466 3602 c-3 -6 -1 -14 5 -17 15 -10 25 3 12 16 -7 7 -13 7 -17 1z"/>
<path d="M5730 3095 c0 -8 9 -15 20 -15 24 0 27 15 4 24 -22 9 -24 8 -24 -9z"/>
<path d="M5266 2183 c-6 -14 -5 -15 5 -6 7 7 10 15 7 18 -3 3 -9 -2 -12 -12z"/>
<path d="M4625 2030 c-11 -16 -24 -30 -28 -30 -4 0 -3 -8 2 -18 7 -14 18 -17
45 -14 42 5 56 20 32 34 -9 5 -16 20 -16 33 0 33 -11 31 -35 -5z"/>
<path d="M5317 1784 c-9 -10 2 -24 19 -24 8 0 14 7 14 15 0 15 -21 21 -33 9z"/>
<path d="M6075 1450 c3 -5 8 -10 11 -10 2 0 4 5 4 10 0 6 -5 10 -11 10 -5 0
-7 -4 -4 -10z"/>
<path d="M4490 655 c-8 -9 -8 -15 -2 -15 12 0 26 19 19 26 -2 2 -10 -2 -17
-11z"/>
<path d="M6265 6377 c-4 -10 -5 -21 -1 -24 10 -10 18 4 13 24 -4 17 -4 17 -12
0z"/>
<path d="M6390 6081 c0 -15 -32 -22 -46 -10 -10 8 -14 8 -14 0 0 -6 3 -11 8
-11 4 0 12 -10 17 -22 6 -13 18 -24 28 -26 14 -3 17 4 17 37 0 23 -2 41 -5 41
-3 0 -5 -4 -5 -9z"/>
<path d="M6270 1859 c0 -15 30 -43 51 -46 23 -3 35 15 20 30 -9 9 -14 8 -20
-2 -7 -11 -11 -9 -20 8 -12 22 -31 29 -31 10z"/>
<path d="M6387 1763 c-11 -10 -8 -51 3 -58 6 -4 10 8 10 29 0 37 -2 41 -13 29z"/>
</g>
</svg>
